<svg xmlns="http://www.w3.org/2000/svg" xmlns:xlink="http://www.w3.org/1999/xlink" enable-background="new 0 0 2374.51 1719.093" viewBox="0 0 2374.51 1719.093"><path fill="#ffe9d4" d="M947.562,1342.637c0,0-508.422-36.432-637.866,43.391c-129.444,79.824-34.434,99.889,68,134.083
				c102.435,34.194,375.732,15.426,436.486,0c60.754-15.426,182.556-50.301,240.312-50.123c57.756,0.178,350.112-15.28,546.961,0
				c196.849,15.28,507.515,17.438,524.774-47.285c17.259-64.722-137.278-112.002-280.064-121.802S947.562,1342.637,947.562,1342.637
				z"/><path fill="#4a704a" d="M1004.103,483.327c0,0-48.559-179.24-24.681-176.565
												c23.878,2.675,33.241,71.153,35.113,111.777c1.099,23.854,1.605,64.787,1.605,64.787H1004.103z"/><path fill="#7f635d" d="M996.613,483.327h50.957c0,0,9.228,23.461,10.031,44.756c0.802,21.295,0,51.236,0,51.236
												s-18.719,0.419-73.56,0v-43.583c0,0-0.003-18.757,1.894-26.372C990.595,490.663,996.613,483.327,996.613,483.327z"/><path fill="#4a704a" d="M1021,483.327c0,0,2.296-169.075,23.863-169.61c21.566-0.535,8.054,84.32,3.912,106.57
												c-4.143,22.25-12.84,63.04-12.84,63.04H1021z"/><path fill="#445e44" d="M996.613,483.327c0,0-65.803-140.482-47.079-149.295
												c18.724-8.813,43.066,66.62,52.161,104.9c5.977,25.157,10.967,44.395,10.967,44.395H996.613z"/><path fill="#445e44" d="M1009.598,483.327c0,0-13.91-134.569,8.56-142.861
												c22.469-8.292,8.827,142.861,8.827,142.861H1009.598z"/><path fill="#445e44" d="M1047.571,483.327c0,0,44.414-82.692,25.751-83.754
												c-18.663-1.062-42.234,83.754-42.234,83.754H1047.571z"/><path fill="#f2c3a7" d="M1217.552,788.777c0.279,0.402,10.416,5.774,25.672,9.287
						c15.256,3.513,30.834,9.733,50.806,11.531c19.972,1.798,35.526-0.527,49.128,1.525c13.602,2.052,22.031,3.116,22.363,6.365
						c0.332,3.249-16.629,2.887-35.081,2.553c-18.452-0.334-21.142,0.666-38.573,0.719c-17.43,0.054-30.893-1.865-37.949-2.005
						c-7.056-0.14-10.691,1.285-19.816-0.715c-9.125-2-16.909-4.839-17.064-5.921
						C1216.882,811.033,1217.552,788.777,1217.552,788.777z"/><path fill="#f2c3a7" d="M1031.951,807.648c0,0-10.967,1.634-21.574,2.713c-10.607,1.079-15.641,4.466-14.023,9.964
						c1.618,5.498,33.08-0.676,42.609,0.433c9.528,1.109,20.698-1.555,20.926-5.257
						C1060.116,811.799,1036.985,805.834,1031.951,807.648z"/><rect width="15.641" height="513.352" x="458.231" y="720.938" fill="#50456d"/><path fill="#50456d" d="M503.537,646.628c0,0-82.521,8.04-88.453,18.288c-5.933,10.248-0.539,42.577,0,49.604
							c0.539,7.027,80.903,27.397,88.453,25.303C511.088,737.728,517.557,677.419,503.537,646.628z"/><path fill="#ffe9d4" d="M582.148,830.765c-62.396,0-113.159-61.267-113.159-136.575
									c0-75.308,50.763-136.576,113.159-136.576s113.159,61.268,113.159,136.576C695.308,769.498,644.545,830.765,582.148,830.765
									z"/><path fill="#50456d" d="M593.055,832.383c-60.364,0-109.474-61.994-109.474-138.194s49.11-138.193,109.474-138.193
									c0.894,0,1.618,0.724,1.618,1.618s-0.724,1.618-1.618,1.618c-58.58,0-106.238,60.542-106.238,134.957
									c0,74.416,47.658,134.958,106.238,134.958c0.894,0,1.618,0.724,1.618,1.618
									C594.673,831.659,593.949,832.383,593.055,832.383z"/><path fill="#9d9ba5" d="M722.355,711.56c-0.14,0-0.282-0.027-0.419-0.085c-0.551-0.231-0.811-0.866-0.579-1.417
								c0.078-0.189,7.788-19.588-3.899-63.313c-12.772-47.785-36.43-71.483-36.667-71.717c-0.426-0.42-0.432-1.105-0.012-1.531
								c0.42-0.427,1.106-0.432,1.531-0.012c0.242,0.238,24.318,24.352,37.241,72.701c11.911,44.562,4.14,63.908,3.803,64.71
								C723.18,711.31,722.778,711.56,722.355,711.56z"/><path fill="#9d9ba5" d="M741.533,696.056c-0.148,0-0.297-0.03-0.441-0.095c-0.546-0.244-0.791-0.884-0.547-1.431
								c0.067-0.153,6.732-15.916-2.041-51.983c-9.587-39.411-28.567-59.337-28.758-59.533c-0.416-0.429-0.406-1.115,0.023-1.531
								c0.429-0.416,1.115-0.406,1.531,0.023c0.195,0.2,19.571,20.503,29.308,60.53c8.978,36.909,2.207,52.723,1.914,53.378
								C742.343,695.817,741.948,696.056,741.533,696.056z"/><path fill="#f2c3a7" d="M587.055,696.036c0,0-43.449-65.431-36.552-90.422c6.897-24.992,70.346-14.821,77.932-6.458
							c7.586,8.363-11.035,32.627-15.862,48.772c-4.828,16.144-1.379,54.751-11.035,55.448
							C591.882,704.072,587.055,696.036,587.055,696.036z"/><path fill="#f2c3a7" d="M600.281,708.186c0,0-63.356,46.422-88.639,40.686c-25.283-5.736-18.051-69.587-10.047-77.551
							c8.004-7.964,33.102,9.517,49.452,13.595c16.35,4.077,54.756-1.149,55.898,8.464
							C608.086,702.992,600.281,708.186,600.281,708.186z"/><path fill="#f2c3a7" d="M611.824,697.029c0,0,35.389,70.119,25.579,94.117c-9.81,23.998-71.607,6.38-78.148-2.823
							c-6.542-9.203,14.823-31.09,21.53-46.548c6.707-15.458,7.858-54.201,17.528-53.749
							C607.982,688.477,611.824,697.029,611.824,697.029z"/><path fill="#f2c3a7" d="M598.207,683.212c0,0,49.955-39.015,66.872-30.524s3.931,71.01-2.641,78.021
							c-6.572,7.011-21.899-13.107-32.793-18.963c-10.894-5.856-38.326-4.93-37.926-14.589
							C592.118,687.497,598.207,683.212,598.207,683.212z"/><path fill="#50456d" d="M639.623,696.456c0,13.521-27.75,24.482-39.577,24.482
									c-11.828,0-21.416-10.961-21.416-24.482c0-13.521,9.588-24.482,21.416-24.482
									C611.874,671.974,639.623,682.935,639.623,696.456z"/><path fill="#50456d" d="M485.159,877.84c-0.949-33.714-6.045-52.458-8.861-60.381c-0.977-2.749-3.57-4.581-6.488-4.581
							h-3.758h-3.758c-2.918,0-5.511,1.832-6.488,4.581c-2.816,7.924-7.912,26.667-8.861,60.381
							c-0.452,16.063,3.003,36.097,4.877,45.634c0.634,3.227,3.463,5.544,6.752,5.544h7.477h7.477c3.288,0,6.118-2.317,6.752-5.544
							C482.155,913.937,485.611,893.904,485.159,877.84z"/><path fill="#8e674d" d="M487.511,1078.356v304.958c0,11.616,9.416,21.032,21.032,21.032h360.364
									c11.615,0,21.032-9.416,21.032-21.032v-304.958c0-11.615-9.416-21.032-21.032-21.032H508.543
									C496.927,1057.324,487.511,1066.74,487.511,1078.356z"/><path fill="#af7b58" d="M425.721,1078.356v304.958c0,11.616,9.416,21.032,21.032,21.032h111
									c11.616,0,21.032-9.416,21.032-21.032v-304.958c0-11.615-9.416-21.032-21.032-21.032h-111
									C435.137,1057.324,425.721,1066.74,425.721,1078.356z"/><path fill="#af7b58" d="M1366.252,815.461H766.065c-7.744,0-14.177,6.278-14.369,14.021l-14.258,299.116v261.726
									c0,7.744,6.277,14.021,14.021,14.021h600.187c7.744,0,14.021-6.277,14.021-14.021v-261.726l14.258-299.116
									C1380.118,821.739,1373.996,815.461,1366.252,815.461z"/><path fill="#8e674d" d="M1421.632,815.461H1296.61c-7.744,0-14.177,6.278-14.369,14.021l-14.258,299.116v261.726
									c0,7.744,6.277,14.021,14.021,14.021h125.021c7.744,0,14.021-6.277,14.021-14.021v-261.726l14.258-299.116
									C1435.497,821.739,1429.375,815.461,1421.632,815.461z"/><path fill="#af7b58" d="M1920.084,815.461h-600.187c-7.744,0-14.177,6.278-14.369,14.021l-14.258,299.116v261.726
									c0,7.744,6.277,14.021,14.021,14.021h600.187c7.744,0,14.021-6.277,14.021-14.021v-261.726l14.258-299.116
									C1933.949,821.739,1927.828,815.461,1920.084,815.461z"/><path fill="#8e674d" d="M1975.463,815.461h-125.021c-7.744,0-14.177,6.278-14.369,14.021l-14.258,299.116v261.726
									c0,7.744,6.277,14.021,14.021,14.021h125.021c7.744,0,14.021-6.277,14.021-14.021v-261.726l14.258-299.116
									C1989.329,821.739,1983.207,815.461,1975.463,815.461z"/><path fill="#8e674d" d="M1684.371,1404.345H646.888c-18.639,0-33.748-15.11-33.748-33.748v-184.52
								c0-18.639,15.11-33.748,33.748-33.748h1037.483c18.639,0,33.748,15.11,33.748,33.748v184.52
								C1718.119,1389.236,1703.01,1404.345,1684.371,1404.345z"/><path fill="#393351" d="M1745.576,718.321c0,0,8.852-1.167,14.05,4.964c5.198,6.13,0.458,11.841,4.722,15.111
							c4.264,3.271,10.505,2.912,13.21,7.604c2.704,4.692-3.321,13.014-1.946,18.74c1.376,5.726,16.054,6.734,19.375,15.214
							c3.321,8.48-10.176,17.79-7.965,23.875c2.212,6.084,31.032,10.935,32.913,23.436c1.881,12.5-10.132,16.344-7.244,21.543
							c2.888,5.2,13.35,5.2,15.485,19.185c2.135,13.985-4.628,38.297-41.322,48.533c-21.743,6.065-64.434-0.474-97.091-17.528
							c-18.332-9.573-41.066-54.328-43.359-66.396c-2.294-12.067-0.631-23.323,6.805-31.121c7.437-7.798,12.839-4.71,17.323-12.388
							c4.484-7.679,1.844-24.01,7.123-30.529c5.279-6.519,7.999-4.419,10.727-8.677c2.729-4.258,1.82-16.961,5.952-21.294
							c4.131-4.332,12.264-2.036,16.43-5.719C1714.931,719.191,1723.105,709.088,1745.576,718.321z"/><path fill="#f27c79" d="M1502.091,751.067c-19.776,57.206,123.923,96.931,142.447,90.756
						c19.417-6.472,47.023-41.17,45.982-43.27c-1.04-2.1-105.581-42.756-105.581-42.756S1519.685,771.26,1502.091,751.067z"/><path fill="#ff867a" d="M1128.156,1405.975c12.459-3.557,32.729-12.984,48.667-34.911
							c7.411-10.197,18.517-10.203,18.82-11.331c1.311-4.874,7.778-1.6,18.679,2.541c3.007,1.142,15.07-6.922,10.587,0.561
							c-22.17,37.003-27.84,57.7-45.827,66.092c-17.56,8.194-88.986,2.932-88.167-6.986
							C1091.405,1415.99,1106.61,1412.126,1128.156,1405.975z"/><path fill="#ff867a" d="M1764.458,835.585c-40.646-51.23-91.4-48.8-127.201-3.47
						c-3.093,3.917-23.783,22.307-28.046,29.664c-9.367,16.163-3.641,38.564-4.854,81.172c-0.682,23.938-2.301,37.196-5.133,49.684
						c-1.508-1.286-2.418-2.048-2.418-2.048s-142.323-160.375-228.69-148.15c-86.367,12.225-179.752,267.465-179.752,267.465
						s-63.488,43.485-79.669,46.361c-16.181,2.877,28.992,10.003,54.161,9.172c25.17-0.831,43.148,9.584,48.182,0.421
						c5.034-9.163,2.474-21.49,8.608-37.64c0.823-2.167,56.532-55.231,102.091-98.348c36.873-34.897,55.86-66.177,55.86-66.177
						s35.69,41.947,77.822,81.919c-4.341,0.536-7.749,0.98-9.981,1.292c-63.251,8.872-95.464,17.595-131.13,72.742
						c-42.498,65.705-109.2,192.01-146.286,264.494c28.602,10.04,15.35,6.234,38.355,11.876
						c36.469-35.554,212.026-185.271,228.004-193.035c15.978-7.764,150.228-10.221,225.778-29.525
						c74.283-18.98,89.987-100.641,89.987-100.641c1.752-6.146,8.665-75.893,9.721-87.589
						C1765.619,921.551,1774.341,848.042,1764.458,835.585z"/><path fill="#ffe9d4" d="M1748.197,1080.512c-10.507-4.505-30.796-8.652-53.949-14.858
						c-34.878-9.349-95.306-71.812-95.306-71.812s-3.094,17.276-11.576,31.091c-8.166,13.3-21.789,23.13-18.967,24.541
						c5.753,2.876,55.892,7.91,79.364,30.203c21.413,20.338,43.34,64.025,56.031,71.535
						C1731.838,1127.881,1743.937,1095.209,1748.197,1080.512z"/><path fill="#ff867a" d="M1731.283,765.261l-1.637,39.608c-0.779,6.459-21.743,20.631-30.869,11.149
									c-2.671-2.775-0.251-11.454,3.424-17.788l14.661-32.355L1731.283,765.261z"/><path fill="#c66c67" d="M1708.472,784.393l6.365-14.047l12.159-0.844
									C1726.996,769.502,1721.461,785.756,1708.472,784.393z"/><path fill="#ff867a" d="M1734.078,744.356l2.974,12.925c-0.109,12.172-12.033,21.707-24.126,20.313
									c-15.082-1.739-21.748-6.237-18.756-19.989c1.755-8.064,12.057-21.097,16.125-26.118c4.755-5.871,11.407-7.62,16.913-5.549
									C1732.439,727.905,1724.338,733.238,1734.078,744.356z"/><path fill="#c66c67" d="M1712.187,749.758c-1.477-1.022-2.604-2.292-3.445-3.879
									c-0.637-1.202-2.374,0.004-1.744,1.193c0.912,1.721,2.209,3.18,3.81,4.288
									C1711.917,752.127,1713.304,750.531,1712.187,749.758z"/><path fill="#393351" d="M1720.709,744.698c-0.197-0.128-0.784-0.567-1.456,0.03c-0.506,0.45-0.967,1.112-1.144,1.797
									c-0.208,0.8,0.394,1.572,1.203,1.594C1720.43,748.151,1722.032,745.559,1720.709,744.698z"/><path fill="#393351" d="M1708.148,739.112c-0.197-0.128-0.784-0.567-1.456,0.03c-0.506,0.45-0.967,1.111-1.144,1.797
									c-0.208,0.801,0.394,1.572,1.203,1.594C1707.869,742.565,1709.471,739.972,1708.148,739.112z"/><path fill="#7f635d" d="M1721.749,736.92c1.664,1.139,3.308,2.64,4.461,4.331c0.548,0.803-0.657,1.579-1.204,0.777
								c-0.99-1.45-2.473-2.826-3.903-3.804C1720.318,737.687,1720.953,736.376,1721.749,736.92z"/><path fill="#7f635d" d="M1708.958,733.381c1.248,0.021,2.492,0.151,3.738,0.292c0.95,0.107,0.875,1.56-0.081,1.452
								c-1.246-0.14-2.489-0.271-3.738-0.292C1707.925,734.817,1708.008,733.365,1708.958,733.381z"/><path fill="#ff867a" d="M1736.117,755.802c1.038-0.863,1.932-1.871,2.766-2.933c1.584-2.018,4.406-4.649,6.243-0.826
									c2.672,5.56-6.355,15.846-11.984,12.75C1728.961,762.494,1733.502,757.976,1736.117,755.802z"/><path fill="#c66c67" d="M1431.171,1205.423c-1.377-0.55-2.401-1.836-2.543-3.413l-4.027-44.888
							c-0.201-2.235,1.449-4.209,3.684-4.41c2.236-0.202,4.21,1.449,4.41,3.684l4.027,44.888c0.201,2.235-1.449,4.209-3.683,4.41
							C1432.38,1205.754,1431.745,1205.652,1431.171,1205.423z"/><path fill="#fff" d="M1711.86,718.088c0,0,10.514,2.543,22.549,7.013c12.035,4.469,19.229,10.938,18.399,15.381
						c-0.83,4.443-8.28,13.413-11.759,11.775c-3.479-1.638-12.728-10.655-18.735-14.528c-6.007-3.874-14.881-4.147-16.818-6.499
						C1703.56,728.879,1711.86,718.088,1711.86,718.088z"/><path fill="#ffe9d4" d="M1738.61,810.893c-1.122,1.291-2.295,2.714-2.923,3.697
							c-1.541,2.411-5.839,10.901-7.897,15.053c-2.676,5.399-9.391,22.859-9.676,23.6l3.021,1.161
							c0.069-0.18,6.945-18.059,9.554-23.324c2.918-5.888,6.509-12.844,7.725-14.748c0.55-0.86,1.711-2.255,2.847-3.554
							C1740.379,812.131,1739.496,811.498,1738.61,810.893z"/><path fill="#ffe9d4" d="M1691.679,798.048c-4.504,0.516-8.969,1.521-13.367,3.018
							c-9.438,5.518-30.679,18.75-34.981,28.366l2.954,1.321c4.425-9.89,30.765-25.263,36-28.245
							C1684.461,801.268,1688.022,799.631,1691.679,798.048z"/><defs><path id="a" d="M1760.599,977.247c2.028-21.896,4.293-44.583,5.952-65.285c-4.494-2.658-9.311-5.928-14.08-9.912
						c-17.645-14.742-21.722-48.002-29.785-54.834c-8.063-6.832-51.451,3.776-51.451,3.776s-13.706-21.159-20.226-28.316
						c-6.376,0.925-11.642,6.765-13.753,9.439c-3.093,3.917-23.783,22.307-28.046,29.664c-7.845,13.538-5.104,31.46-4.719,61.96
						c19.813,3.724,87.77,17.438,121.445,36.202C1738.705,967.056,1750.483,972.766,1760.599,977.247z"/></defs><use fill="#ffe9d4" overflow="visible" xlink:href="#a"/><clipPath id="b"><use overflow="visible" xlink:href="#a"/></clipPath><g clip-path="url(#b)"><path fill="#ff5f4a" d="M1749.37,899.208c0,0-7.603-3.621-12.407,0.55c-4.805,4.172,0.195,13.847,8.307,13.316
									C1753.381,912.544,1759.017,905.092,1749.37,899.208z"/><path fill="#6ca36c" d="M1745.231,898.323c0,0,7.01-10.722,7.634-8.854s-0.335,5.517-0.335,5.517
									s6.296-6.587,8.436-4.201c2.141,2.385-9.478,10.787-12.144,10.236C1746.156,900.47,1745.231,898.323,1745.231,898.323z"/><path fill="#ff5f4a" d="M1635.025,895.782c0,0-8.411,0.41-10.668,6.359c-2.257,5.949,6.729,12.104,13.622,7.796
									C1644.873,905.629,1646.309,896.398,1635.025,895.782z"/><path fill="#6ca36c" d="M1630.961,896.962c0,0,1.097-12.763,2.531-11.413c1.434,1.349,2.318,5.018,2.318,5.018
									s2.427-8.783,5.441-7.695c3.015,1.088-3.24,13.989-5.85,14.766C1632.792,898.415,1630.961,896.962,1630.961,896.962z"/><path fill="#ff5f4a" d="M1691.334,869.752c0,0-5.195-6.628-11.354-5.032c-6.16,1.596-5.991,12.485,1.508,15.622
									C1688.987,883.479,1697.351,879.317,1691.334,869.752z"/><path fill="#6ca36c" d="M1688.023,867.117c0,0,11.051-6.479,10.778-4.529c-0.273,1.95-2.756,4.791-2.756,4.791
									s8.57-3.094,9.424-0.005c0.854,3.089-13.289,5.438-15.432,3.758C1687.894,869.451,1688.023,867.117,1688.023,867.117z"/><path fill="#ff5f4a" d="M1631.124,833.95c0,0-8.402-0.572-11.336,5.074c-2.934,5.646,5.273,12.805,12.621,9.329
									C1639.757,844.877,1642.259,835.876,1631.124,833.95z"/><path fill="#6ca36c" d="M1626.95,834.649c0,0,2.576-12.548,3.844-11.041c1.267,1.507,1.717,5.254,1.717,5.254
									s3.433-8.44,6.301-7.009c2.868,1.431-4.848,13.516-7.53,13.984C1628.599,836.305,1626.95,834.649,1626.95,834.649z"/><g><path fill="#ff5f4a" d="M1719.012,947.573c0,0-8.402-0.572-11.336,5.074c-2.934,5.646,5.273,12.805,12.621,9.329
									C1727.645,958.501,1730.147,949.499,1719.012,947.573z"/><path fill="#6ca36c" d="M1714.838,948.272c0,0,2.576-12.548,3.843-11.041c1.267,1.507,1.717,5.254,1.717,5.254
									s3.433-8.44,6.3-7.009c2.868,1.431-4.847,13.516-7.53,13.984C1716.487,949.929,1714.838,948.272,1714.838,948.272z"/></g></g><path fill="#c66c67" d="M1712.897,759.527c-0.211,0-0.423-0.062-0.61-0.19c-3.82-2.625-10.106-4.937-10.169-4.961
						c-0.56-0.204-0.847-0.824-0.643-1.383c0.204-0.559,0.826-0.848,1.383-0.643c0.268,0.097,6.608,2.43,10.651,5.208
						c0.491,0.338,0.616,1.009,0.278,1.5C1713.578,759.364,1713.24,759.527,1712.897,759.527z"/><path fill="#f27c79" d="M1723.205,719.93c0,0-22.679-2.427-31.526-2.427s-160.346-15.795-185.561,25.175
						c-1.745,2.835-3.074,5.632-4.027,8.389c17.594,20.193,83.208,14.842,83.208,14.842s35.464-4.474,62.464-13.352
						c41.271-13.57,56.916-25.817,63.682-24.807c12.646,1.888,17.5,3.506,21.276,0.27
						C1736.497,724.784,1723.205,719.93,1723.205,719.93z"/><path fill="#c66c67" d="M1569.228,769.931c-8.285,0-17.587-0.489-27.417-1.856c-2.065-0.287-3.507-2.194-3.22-4.259
						c0.288-2.065,2.193-3.507,4.259-3.22c32.587,4.531,59.813-1.1,60.084-1.158c2.04-0.433,4.044,0.872,4.476,2.912
						c0.431,2.04-0.872,4.044-2.912,4.476C1603.675,767.001,1589.503,769.931,1569.228,769.931z"/><path fill="#c66c67" d="M1568.404,1053.249c-0.195,0-0.392-0.015-0.591-0.046
						c-24.591-3.864-111.511-3.814-112.391-3.815c-0.001,0-0.003,0-0.004,0c-2.084,0-3.773-1.688-3.776-3.771
						c-0.002-2.085,1.687-3.777,3.771-3.78c3.609-0.003,88.398-0.048,113.572,3.907c2.06,0.323,3.467,2.256,3.143,4.316
						C1571.837,1051.92,1570.231,1053.249,1568.404,1053.249z"/><path fill="#8e674d" d="M1663.245,1078.356v304.958c0,11.616,9.416,21.032,21.031,21.032h360.364
								c11.615,0,21.031-9.416,21.031-21.032v-304.958c0-11.615-9.416-21.032-21.031-21.032h-360.364
								C1672.662,1057.324,1663.245,1066.74,1663.245,1078.356z"/><path fill="#af7b58" d="M1601.456,1078.356v304.958c0,11.616,9.416,21.032,21.031,21.032h111
								c11.615,0,21.032-9.416,21.032-21.032v-304.958c0-11.615-9.416-21.032-21.032-21.032h-111
								C1610.872,1057.324,1601.456,1066.74,1601.456,1078.356z"/><path fill="#ff867a" d="M1764.458,835.585c0,0,130.069,118.962,96.629,180.988
						c-33.44,62.025-159.202,60.947-177.763,85.217c-18.561,24.271-18.561,51.111-39.056,50.905
						c-20.495-0.206,3.775-71.94,24.271-92.435c20.495-20.495,115.648-69.45,120.389-77.54c4.741-8.09-61.683-84.805-59.24-130.65
						C1732.131,806.226,1764.458,835.585,1764.458,835.585z"/><path fill="#c66c67" d="M1842.39,1001.471c-0.972,0-1.944-0.374-2.683-1.119c-17.307-17.475-50.128-15.991-50.461-15.98
						c-2.106,0.105-3.858-1.494-3.965-3.576c-0.107-2.083,1.494-3.858,3.576-3.965c1.483-0.076,36.554-1.643,56.215,18.207
						c1.468,1.481,1.456,3.872-0.026,5.339C1844.311,1001.107,1843.35,1001.471,1842.39,1001.471z"/><path fill="#c66c67" d="M1640.493,1012.078c0,0-1.978-6.832-5.034-1.978c-3.056,4.854-0.18,9.349,2.517,7.911
						C1640.672,1016.573,1640.493,1012.078,1640.493,1012.078z"/><path fill="#c66c67" d="M1377.593,967.469c-0.756,0-1.52-0.226-2.183-0.698c-1.7-1.208-2.099-3.565-0.892-5.264
						c14.566-20.506,15.152-42.613,15.156-42.834c0.039-2.085,1.789-3.763,3.847-3.703c2.085,0.04,3.742,1.762,3.703,3.847
						c-0.019,0.997-0.65,24.678-16.55,47.063C1379.938,966.916,1378.775,967.469,1377.593,967.469z"/><path fill="#50456d" d="M846.253,1254.427c-52.862-40.962-121.153-90.806-121.153-90.806
							c-3.779-3.948-17.083-14.375-36.153-23.855c-41.951,39.153-69.998,88.706-64.065,149.72
							c51.508,63.889,189.593,196.029,302.98,168.945C990.064,1443.571,888.876,1287.455,846.253,1254.427z"/><path fill="#ff867a" d="M564.675,1133.714c-79.723,39.216-222.255,295.846-222.255,295.846l28.746,9.794
							c0,0,147.613-85.161,198.693-142.913c20.938-23.673,37.762-51.023,37.762-51.023s7.917,11.102,21.76,28.272
							c17.684-23.694,51.282-75.207,59.567-133.925C657.574,1124.167,610.587,1111.13,564.675,1133.714z"/><path fill="#f27c79" d="M818.268,960.473c0,0-215.866,29.56-224.669,69.224c-8.803,39.664,10.787,67.569,37.395,69.382
							c26.608,1.813,163.243-9.694,180.143-22.279C828.038,1064.215,818.268,960.473,818.268,960.473z"/><path fill="#ff867a" d="M341.065,1430.32c0,0-35.317,23.074-47.525,29.449c-12.208,6.375-4.892,9.944,11.993,10.203
								c16.885,0.259,45.18-2.525,55.284-9.519c10.104-6.994,11.245-25.631,15.924-38.427c4.679-12.796-8.814-19.143-19.141-10.615
								C347.273,1419.94,341.065,1430.32,341.065,1430.32z"/><path fill="#ff867a" d="M797.115,1262.607c-47.547-33.235-21.412-106.026-17.596-145.909
								c4.214-44.035-12.712-124.754,20.701-147.011c61.478-40.953,208.08-12.576,228.083,53.469
								c20.292,66.995-14.843,215.118-45.488,319.482C921.847,1328.079,841.311,1293.499,797.115,1262.607z"/><path fill="#ff867a" d="M555.465,1475.177c0,0-39.25,26.354-52.839,33.669c-13.59,7.315-5.341,11.212,13.583,11.265
								c18.924,0.052,50.592-3.466,61.816-11.446c11.224-7.979,12.239-28.88,17.302-43.284
								c5.063-14.405-10.147-21.327-21.599-11.625C562.276,1463.458,555.465,1475.177,555.465,1475.177z"/><path fill="#53619b" d="M777.156,1157.053c0,0,9.396,4.809,68.644,47.649
								c59.248,42.839,149.555,93.465,149.555,93.465s40.112,148.349-75.136,164.037
								c-106.052,14.436-181.325-188.768-181.325-188.768L777.156,1157.053z"/><path fill="#ff867a" d="M808.119,1237.721c18.567-38.5-7.691-83.167-50.41-84.615
								c-0.566-0.019-1.137-0.035-1.713-0.046c-57.597-1.142-196.239,321.552-196.239,321.552s-10.813,16.646,27.232,10.879
								C586.988,1485.491,747.086,1364.274,808.119,1237.721z"/><path fill="#c66c67" d="M607.617,1248.359c0.125,0,0.251-0.008,0.378-0.024c1.612-0.206,2.751-1.68,2.545-3.292
								l-4.342-33.894c-0.207-1.612-1.688-2.747-3.292-2.544c-1.612,0.207-2.751,1.68-2.545,3.292l4.342,33.894
								C604.893,1247.275,606.159,1248.359,607.617,1248.359z"/><path fill="#c66c67" d="M762.602,1317.15c0.916,0,1.835-0.331,2.561-1c23.903-22.009,34.492-61.378,34.931-63.043
								c0.532-2.02-0.673-4.088-2.692-4.621c-2.016-0.535-4.089,0.672-4.622,2.691c-0.103,0.387-10.484,38.915-32.741,59.408
								c-1.537,1.415-1.636,3.808-0.221,5.344C760.564,1316.739,761.582,1317.15,762.602,1317.15z"/><path fill="#ff867a" d="M995.157,982.693c0,0,190.65,93.427,197.122,169.636
							c6.472,76.209-121.526,119.605-124.051,138.055c-4.674,34.159,0,90.251-21.574,69.756
							c-21.574-20.495-24.209-74.79-12.343-99.6c11.866-24.81,67.715-96.724,67.715-96.724s-107.026-54.876-118.891-95.867
							C971.27,1026.958,995.157,982.693,995.157,982.693z"/><path fill="#ffe9d4" d="M870.175,864.533c0,0-4.817-18.398,14.144-29.073c15.48-8.715,33.455,17.323,38.873,24.326
								c5.418,7.003,4.861,6.92,4.861,6.92s3.556,4.049,2.655,9.809c-0.901,5.76-4.648,6.716-6.734,5.486
								C921.888,880.77,870.175,864.533,870.175,864.533z"/><path fill="#ffe9d4" d="M928.862,878.572c0,0-4.591,18.971-13.688,27.901c-9.097,8.931-19.318,7.096-22.356,3.795
									c-3.037-3.3-17.606-41.55-13.073-43.538C884.28,864.742,927.15,869.099,928.862,878.572z"/><path fill="#ff867a" d="M873.036,961.717c-1.497-1.39-3.488-5.925-4.886-9.459c0.245-0.527,0.49-1.024,0.73-1.476
									l15.582-52.544l19.525,3.428l4.305,53.24c-4.229,1.606-17.591,6.6-23.381,7.822
									C877.985,964.19,875.598,964.097,873.036,961.717z"/><path fill="#c66c67" d="M872.667,938.012c2.42-0.575,9.869-1.442,13.184-3.457c12.394-7.53,11.52-20.73,11.52-20.73
										l-19.084,5.234L872.667,938.012z"/><path fill="#ff867a" d="M903.699,876.629l1.488,24.833c1.585,24.403-30.774,26.583-38.308,25.1
													c-9.013-1.774-13.509-2.98-12.627-14.901c1.144-15.465,6.594-29.383,9.927-36.666
													c2.455-5.364,4.883-11.395,10.427-13.493C886.223,857.103,903.126,862.676,903.699,876.629z"/><path fill="#ffe9d4" d="M886.098,872.52c1.779,0.77,3.601,1.438,5.346,2.284
													c1.836,0.889,0.492,3.757-1.343,2.868c-1.746-0.846-3.568-1.514-5.346-2.284
													C882.88,874.576,884.23,871.711,886.098,872.52z"/><path fill="#ffe9d4" d="M869.406,869.935c-1.585,0.425-3.193,0.741-4.761,1.246
													c-1.649,0.531-0.905,3.595,0.743,3.064c1.568-0.505,3.175-0.821,4.761-1.246
													C871.82,872.551,871.07,869.489,869.406,869.935z"/><path fill="#ff867a" d="M906.624,887.037c1.358-3.259,4.131-7.787,7.975-3.395
													c5.592,6.389-0.898,22.273-9.504,20.241C898.705,902.373,905.91,888.752,906.624,887.037z"/><path fill="#c66c67" d="M874.49,890.542c-2.073-0.726-3.812-1.856-5.318-3.454
													c-1.141-1.21-2.797,0.775-1.669,1.972c1.633,1.732,3.635,3.031,5.881,3.818
													C874.939,893.422,876.058,891.091,874.49,890.542z"/><path fill="#f27c79" d="M768.929,901.384c0,0-231.347,105.446-182.936,169.664
							c81.318,107.87,193.731-129.328,198.291-144.128c4.561-14.801,29.317-36.009,29.883-43.743c0.566-7.734-15.118-6.685-24.807,0
							C779.672,889.862,768.929,901.384,768.929,901.384z"/><path fill="#fff" d="M775.244,872.685c5.338,0.404,8.626,2.541,14.872,3.98c6.245,1.439,9.317-0.724,14.236-3.771
								c4.919-3.047,6.389,0.143,13.334-0.244c3.179-0.177,6.204-0.814,8.823-1.557c-8.526-2.301-18.479-3.082-22.551-3.89
								c-5.099-1.011-26.291-11.016-36.175-12.956c-5.054-0.992-7.934-1.583-9.542-1.925c-1.4-0.297-2.849-0.055-4.021,0.683
								c-2.988,1.882-8.373,6.498-10.926,16.313c-0.823,3.167-1.182,5.941-1.236,8.355c4.226,0.325,12.928,0.891,19.04,0.582
								C769.448,877.833,769.906,872.281,775.244,872.685z"/><path fill="#4c3d3d" d="M747.802,891.361c1.512,0.465,4.35,1.36,9.534,3.05c9.577,3.121,32.958,4.71,37.903,6.312
								c4.945,1.602,17.928,7.737,27.885,8.751c9.958,1.014,16.481-2.807,24.982-3.276c8.5-0.469,19.371,2.831,19.371,2.831
								l1.805-6.94l1.805-6.94c0,0-11.102-2.415-18.296-6.966c-7.195-4.551-11.029-11.066-20.219-15.033
								c-1.852-0.799-3.913-1.475-6.064-2.056c-2.62,0.744-5.644,1.38-8.823,1.557c-6.945,0.387-8.415-2.803-13.334,0.244
								c-4.919,3.047-7.991,5.21-14.236,3.771c-6.245-1.439-9.534-3.576-14.872-3.98c-5.338-0.405-5.796,5.148-14.145,5.57
								c-6.112,0.309-14.814-0.256-19.04-0.582c-0.129,5.763,1.489,9.458,2.739,11.433
								C745.477,890.179,746.553,890.977,747.802,891.361z"/><path fill="#fff" d="M795.24,900.722c4.945,1.602,17.928,7.737,27.886,8.751
									c9.958,1.014,16.481-2.807,24.981-3.276c8.5-0.469,19.371,2.831,19.371,2.831s3.708,0.452,5.188-5.719
									c1.413-5.891-1.578-8.161-1.578-8.161s-11.102-2.415-18.296-6.966c-7.195-4.551-11.029-11.066-20.219-15.033
									c-9.19-3.967-23.516-4.934-28.615-5.945s-26.291-11.016-36.175-12.956c-5.054-0.992-7.934-1.583-9.542-1.925
									c-1.4-0.297-2.849-0.055-4.021,0.683c-2.988,1.882-8.373,6.499-10.926,16.313c-2.789,10.725-0.27,16.987,1.503,19.788
									c0.679,1.073,1.755,1.87,3.004,2.254c1.513,0.465,4.35,1.36,9.534,3.05C766.914,897.532,790.295,899.121,795.24,900.722z
									 M757.918,892.674c-5.282-1.722-8.118-2.615-9.567-3.06c-0.801-0.246-1.475-0.75-1.898-1.418
									c-1.603-2.533-3.901-8.289-1.274-18.387c2.401-9.23,7.389-13.524,10.148-15.262c0.732-0.461,1.66-0.618,2.545-0.43
									c1.493,0.317,4.365,0.909,9.573,1.931c5.571,1.094,15.246,4.994,23.019,8.128c6.054,2.441,10.836,4.369,13.152,4.828
									c1.376,0.273,3.359,0.538,5.655,0.845c6.364,0.851,15.981,2.138,22.544,4.97c5.166,2.23,8.492,5.274,12.014,8.496
									c2.393,2.19,4.868,4.455,7.922,6.387c5.636,3.565,13.385,5.833,16.986,6.76c0,0,0.903,4.258,0.547,5.625
									c-0.356,1.367-3.219,4.646-3.219,4.646c-3.596-0.944-11.468-2.74-18.127-2.372c-3.608,0.199-6.873,0.971-10.031,1.718
									c-4.645,1.098-9.032,2.136-14.631,1.566c-7.111-0.724-16.136-4.286-22.108-6.644c-2.154-0.85-4.015-1.585-5.35-2.017
									c-2.247-0.728-7.362-1.374-13.838-2.192C773.665,895.741,763.316,894.433,757.918,892.674z"/><path fill="#ff5f4a" d="M832.573,873.149c-5.655-2.441-13.252-3.745-19.45-4.624l-9.236,35.509
									c5.84,2.253,13.11,4.815,19.238,5.439c0.027,0.003,0.054,0.005,0.082,0.007l9.441-36.297
									C832.623,873.172,832.599,873.161,832.573,873.149z"/><path fill="#705a50" d="M834.384,882.774c0.009-0.097,0.045-0.193,0.109-0.276c0.18-0.234,0.516-0.278,0.75-0.099
									c0.031,0.024,3.197,2.46,6.38,5.344c3.104,2.812,16.054,8.589,16.185,8.647c0.27,0.12,0.391,0.436,0.271,0.706
									c-0.12,0.27-0.436,0.392-0.706,0.272c-0.539-0.24-13.238-5.906-16.468-8.832c-3.151-2.855-6.282-5.264-6.313-5.288
									C834.44,883.132,834.367,882.951,834.384,882.774z"/><path fill="#705a50" d="M831.1,896.036l0.156-1.058c0,0,4.721,0.696,7.383,1.092
									c2.667,0.398,11.413,2.953,11.784,3.062c0.284,0.083,0.446,0.38,0.363,0.664c-0.083,0.283-0.38,0.446-0.664,0.363
									c-0.09-0.027-9.046-2.644-11.641-3.031C835.819,896.732,831.1,896.036,831.1,896.036z"/><path fill="#705a50" d="M828.323,901.87c0.001-0.013,0.003-0.025,0.005-0.037c0.047-0.292,0.322-0.49,0.614-0.443
									c0.011,0.002,1.193,0.186,3.321,0.116c2.202-0.073,10.384-0.069,10.467-0.069c0.295,0,0.535,0.24,0.535,0.535
									c-0.003,0.295-0.24,0.535-0.535,0.534c-0.082,0-8.247-0.004-10.431,0.068c-2.245,0.074-3.476-0.12-3.527-0.129
									C828.491,902.401,828.298,902.148,828.323,901.87z"/><path fill="#705a50" d="M753.773,870.905c0.003-0.029,0.008-0.059,0.016-0.089c0.076-0.286,0.368-0.456,0.654-0.38
									c0.149,0.039,14.973,3.961,18.881,4.919c3.919,0.961,30.993,8.294,31.266,8.369c0.285,0.077,0.454,0.37,0.376,0.656
									c-0.077,0.285-0.371,0.454-0.656,0.376c-0.273-0.074-27.334-7.405-31.24-8.362c-3.917-0.961-18.751-4.884-18.9-4.924
									C753.913,871.402,753.75,871.16,753.773,870.905z"/><path fill="#705a50" d="M753.144,882.985c0.008-0.085,0.036-0.17,0.087-0.247c0.163-0.246,0.495-0.313,0.742-0.149
									c3.696,2.454,21.866,6.085,25.732,6.204c3.87,0.119,22.151,4.117,22.927,4.287c0.289,0.063,0.473,0.348,0.408,0.637
									c-0.063,0.289-0.349,0.471-0.637,0.408c-0.189-0.042-18.959-4.147-22.731-4.263c-4.036-0.124-22.377-3.782-26.291-6.382
									C753.211,883.367,753.127,883.174,753.144,882.985z"/><path fill="#c66c67" d="M671.808,1084.276c-1.006,0-1.997-0.467-2.63-1.346c-1.043-1.451-0.713-3.473,0.737-4.517
							c55.339-39.806,89.978-108.895,90.321-109.588c0.793-1.601,2.736-2.257,4.336-1.463c1.602,0.793,2.257,2.735,1.463,4.336
							c-0.35,0.708-35.711,71.235-92.341,111.97C673.123,1084.079,672.463,1084.276,671.808,1084.276z"/><path fill="#c66c67" d="M1031.544,1123.691c-0.629,0-1.266-0.184-1.825-0.566c-1.305-0.893-32.115-22.13-45.224-44.188
							c-0.913-1.536-0.408-3.522,1.129-4.435c1.536-0.913,3.522-0.407,4.435,1.129c12.387,20.843,43.008,41.943,43.316,42.154
							c1.475,1.009,1.852,3.023,0.843,4.498C1033.591,1123.198,1032.576,1123.691,1031.544,1123.691z"/><path fill="#c66c67" d="M1102.031,1167.05c-1.004,0-1.994-0.465-2.627-1.341c-1.045-1.448-0.722-3.467,0.724-4.514
							c0.886-0.642,22.085-15.717,55.115-15.717c1.787,0,3.236,1.449,3.236,3.236c0,1.787-1.449,3.236-3.236,3.236
							c-30.834,0-51.122,14.344-51.323,14.49C1103.349,1166.851,1102.686,1167.05,1102.031,1167.05z"/><path fill="#c66c67" d="M921.067,1088.349c-0.708,0-1.341-0.015-1.889-0.048c-1.125-0.066-2.885-0.063-4.917-0.055
							c-13.854,0.029-46.272,0.131-53.621-22.678c-8.026-24.912,2.18-41.01,2.619-41.683c0.974-1.497,2.979-1.922,4.477-0.945
							c1.494,0.973,1.919,2.971,0.952,4.468c-0.383,0.601-8.915,14.364-1.888,36.176c5.899,18.308,33.956,18.234,47.442,18.19
							c2.231-0.004,3.992-0.01,5.316,0.067c8.754,0.519,43.271-3.963,43.618-4.009c1.769-0.228,3.396,1.019,3.627,2.791
							c0.231,1.772-1.018,3.396-2.79,3.627C962.653,1084.426,932.412,1088.348,921.067,1088.349z"/><path fill="#c66c67" d="M808.431,1086.675c-12.376,0-24.05-2.314-24.788-2.463c-1.752-0.353-2.885-2.06-2.531-3.812
							c0.353-1.751,2.056-2.885,3.812-2.533c0.259,0.053,26.007,5.15,39.986,0.127c12.859-4.62,14.573-16.292,14.639-16.786
							c0.238-1.765,1.854-3.019,3.624-2.786c1.766,0.229,3.016,1.833,2.797,3.6c-0.081,0.653-2.18,16.066-18.872,22.063
							C821.683,1086.031,814.959,1086.675,808.431,1086.675z"/><path fill="#393351" d="M887.772,888.808c-3.857,0-5.655-2.306-5.736-2.414c-0.36-0.475-0.267-1.151,0.208-1.512
							c0.472-0.357,1.143-0.268,1.505,0.199c0.079,0.099,1.576,1.904,4.955,1.514c0.592-0.063,1.127,0.357,1.195,0.949
							c0.068,0.592-0.357,1.127-0.949,1.195C888.538,888.787,888.145,888.808,887.772,888.808z"/><path fill="#393351" d="M865.524,884.101c-0.758,0-1.692-0.135-2.813-0.519c-0.564-0.193-0.864-0.807-0.671-1.37
							c0.193-0.563,0.805-0.865,1.37-0.67c2.343,0.803,3.332,0.154,3.343,0.147c0.475-0.326,1.145-0.235,1.492,0.227
							c0.347,0.461,0.29,1.098-0.155,1.465C867.968,883.482,867.15,884.101,865.524,884.101z"/><g><path fill="#ffe9d4" d="M1024.8,779.16c0,0,5.899-7.018,14.442-11.798c8.543-4.78,28.783-5.899,38.547-6.204
						c9.764-0.305,16.477-4.068,27.461-4.78c10.984-0.712,53.6,6.611,69.67,9.967c16.07,3.356,42.615,16.578,48.514,25.63
						c5.899,9.052-1.322,32.038-6.713,38.852c-5.39,6.814-19.65,11.938-19.548,16.21c0.102,4.272,10.77,13.521,6.803,21.149
						c-3.967,7.628-27.124,29.87-32.921,32.006c-5.797,2.136-13.629,3.662-16.985,0c-3.356-3.661,2.848-8.238,7.73-12.307
						s17.494-21.358,17.799-23.189c0.305-1.831-18.714-15.053-21.664-20.748c-2.95-5.695-17.799-17.087-23.393-18.714
						c-5.594-1.627-18.409-4.17-19.324-4.475c-0.915-0.305-10.069,11.595-13.934,16.578c-3.865,4.984-8.137,14.544-7.526,18.409
						c0.61,3.865,2.746,11.798-0.712,17.9c-3.458,6.102-12.746,9.255-16.849,4.78s1.084-10.883,1.593-15.256s-3.56-17.087,0-25.427
						c3.56-8.34,8.442-21.155,8.442-21.155s-11.9,0-16.68-1.221c-4.78-1.22-27.969-11.173-34.682-16.825
						C1028.156,792.89,1024.8,779.16,1024.8,779.16z"/></g><g><path fill="#f2c3a7" d="M1115.217,821.837c-0.29,0-0.578-0.116-0.791-0.346c-0.405-0.437-0.379-1.119,0.058-1.524
						c2.034-1.886,2.081-6.742,1.503-10.327c-0.465-2.88-1.452-4.224-5.852-9.223c-4.503-5.117-11.342-17.668-11.631-18.199
						c-0.284-0.524-0.091-1.179,0.433-1.463c0.525-0.284,1.178-0.09,1.463,0.433c0.069,0.128,7.011,12.868,11.355,17.804
						c4.59,5.216,5.814,6.909,6.362,10.305c0.337,2.091,1.177,9.153-2.167,12.252
						C1115.743,821.741,1115.48,821.837,1115.217,821.837z"/></g><g><path fill="#ffe9d4" d="M1032.699,777.939c0,0,13.29-7.052,17.494-9.086c4.204-2.034,5.289-3.933,9.357-4.204
						c4.068-0.271,16.68,6.509,21.019,10.578c4.34,4.068,7.459,12.34,7.323,15.188c-0.135,2.848-6.645,9.221-5.696,12.747
						c0.949,3.526,0.271,6.103-0.542,7.458c-0.814,1.356-1.356,2.034-1.356,2.034s0,2.441-1.356,4.34
						c-1.356,1.898-6.374,2.848-7.187,2.848c-0.813,0-2.577,0-2.577,0s-2.848,1.085-5.56,0c-2.712-1.085-5.424-2.577-9.086-3.255
						c-3.661-0.678-21.426-2.848-24.003-5.831c-2.577-2.983-5.018-8.543-5.018-13.29
						C1025.511,792.721,1032.699,777.939,1032.699,777.939z"/></g><g><path fill="#ffe9d4" d="M1070.523,753.123c0,0-5.956,5.831-7.583,7.187c-1.627,1.356-6.098,4.068-6.236,5.56
						c-0.138,1.492,5.016,7.459,7.999,7.594C1067.686,773.599,1070.523,753.123,1070.523,753.123z"/></g><g><path fill="#fff" d="M1081.298,802.603c-2.492-1.17-5.441,6.408-7.12,7.679s-11.466,1.441-13.73,4.373
						c-0.973,1.26-1.266,2.403-1.07,3.387c1.495,0.599,2.868,1.251,4.24,1.8c2.712,1.085,5.56,0,5.56,0s1.763,0,2.577,0
						c0.814,0,5.831-0.949,7.187-2.848c1.356-1.899,1.356-4.34,1.356-4.34s0.542-0.678,1.356-2.034
						c0.768-1.28,1.397-3.659,0.67-6.885C1082.069,803.217,1081.738,802.81,1081.298,802.603z"/></g><g><path fill="#ff867a" d="M1072.653,810.231c0,0-3.673-0.064-3.922,1.392c-0.249,1.456,1.243,1.253,2.252,1.354
						c1.009,0.102,1.619,0.458,2.585,1.068c0.966,0.61,1.881-0.814,2.085-1.577c0.203-0.763,0.102-1.425,0.305-2.238
						c0.203-0.813,0.483-1.567-0.165-2.08C1075.145,807.638,1072.653,810.231,1072.653,810.231z"/></g><g><path fill="#50456d" d="M1072.246,796.817c-0.307,0-0.613-0.131-0.826-0.384c-0.383-0.456-0.325-1.136,0.131-1.52
						c0.022-0.018,2.202-1.856,3.411-3.162c1.166-1.259,1.885-2.49,1.892-2.503c0.299-0.516,0.959-0.69,1.473-0.393
						c0.516,0.298,0.693,0.956,0.395,1.472c-0.034,0.058-0.839,1.444-2.177,2.89c-1.301,1.406-3.512,3.269-3.606,3.347
						C1072.738,796.734,1072.491,796.817,1072.246,796.817z"/></g><g><path fill="#50456d" d="M1053.083,805.078c-1.327,0-2.451-0.022-2.522-0.023c-0.596-0.012-1.069-0.504-1.058-1.1
						c0.012-0.596,0.521-1.067,1.1-1.058c0.025,0,2.593,0.048,4.529,0c1.872-0.049,4.534-0.537,4.56-0.542
						c0.588-0.109,1.149,0.279,1.257,0.865c0.108,0.586-0.279,1.148-0.864,1.257c-0.116,0.021-2.854,0.524-4.898,0.577
						C1054.51,805.072,1053.769,805.078,1053.083,805.078z"/></g><g><path fill="#f2c3a7" d="M1082.271,802.309c-0.145,0-0.292-0.029-0.434-0.092c-0.545-0.24-0.793-0.876-0.554-1.422
						c0.111-0.253,2.737-6.218,4.227-8.605c1.282-2.053,1.261-4.35-0.065-7.23c-1.173-2.547-8.532-11.888-11.268-15.273
						c-0.375-0.464-0.302-1.142,0.161-1.517c0.463-0.374,1.143-0.302,1.517,0.161c0.408,0.506,10.024,12.414,11.549,15.727
						c1.636,3.552,1.614,6.586-0.065,9.275c-1.407,2.255-4.055,8.269-4.082,8.33
						C1083.082,802.068,1082.686,802.309,1082.271,802.309z"/></g><g><path fill="#ff867a" d="M1040.022,783.364c0,0-15.731-10.713-22.511-8.544c-6.781,2.17,2.305,11.663,4.475,15.188
						c2.17,3.526,2.848,7.323,6.238,8.408c3.39,1.085,8.137-5.153,9.628-6.916C1039.344,789.737,1040.022,783.364,1040.022,783.364z
						"/></g><g><path fill="#ff867a" d="M1064.703,773.464c0,0-0.271-8.815,2.034-13.968c2.305-5.153,3.39-10.578,5.56-8.95
						c2.17,1.627,0.814,10.035,1.899,13.425c1.085,3.39,1.417,6.645,2.065,8.001c0.647,1.356-2.2,2.848-5.048,3.119
						S1064.71,774.821,1064.703,773.464z"/></g><g><path fill="#f2c3a7" d="M1157.402,844.132c-0.335,0-0.665-0.155-0.876-0.448c-9.972-13.821-1.883-35.821-1.534-36.751
						c0.209-0.558,0.83-0.839,1.388-0.63c0.558,0.209,0.84,0.831,0.631,1.388c-0.081,0.217-8.028,21.853,1.264,34.731
						c0.349,0.483,0.24,1.157-0.244,1.506C1157.841,844.066,1157.621,844.132,1157.402,844.132z"/></g><g><rect width="510.784" height="40.54" x="908.421" y="575.746" fill="#ffb471"/></g><g><path fill="#f7b19f" d="M1189.174,575.746h-34.801c-11.015,0-18.854-8.962-17.475-19.977l6.572-52.465
										c1.38-11.015,11.464-19.977,22.479-19.977h34.8c11.016,0,18.855,8.962,17.475,19.977l-6.571,52.465
										C1210.273,566.784,1200.189,575.746,1189.174,575.746z"/><path fill="#54678c" d="M1180.892,487.302h-34.801c-8.838,0-16.9,7.164-18.006,16.002l-6.571,52.465
									c-1.107,8.838,5.16,16.002,13.998,16.002h34.801c8.838,0,16.9-7.164,18.006-16.002l6.572-52.465
									C1195.997,494.466,1189.73,487.302,1180.892,487.302z"/><path fill="#fff" d="M1169.814,575.746h-34.8c-11.016,0-18.855-8.962-17.475-19.977l6.572-52.465
										c1.38-11.015,11.464-19.977,22.479-19.977h34.8c11.016,0,18.855,8.962,17.475,19.977l-6.572,52.465
										C1190.914,566.784,1180.829,575.746,1169.814,575.746z M1145.594,491.277c-6.632,0-12.703,5.395-13.534,12.027
										l-6.571,52.465c-0.831,6.632,3.889,12.027,10.521,12.027h34.801c6.632,0,12.703-5.395,13.534-12.027l6.571-52.465
										c0.831-6.632-3.889-12.027-10.521-12.027H1145.594z"/><polygon fill="#5cbec6" points="1177.74 512.394 1142.958 512.394 1144.39 500.966 1179.171 500.966"/><polygon fill="#5cbec6" points="1164.256 536.741 1140.498 536.741 1141.929 525.313 1165.687 525.313"/></g><g><polygon fill="#ce926a" points="1339.398 505.805 1290.543 505.805 1304.953 575.924 1339.398 575.924 1373.842 575.924 1388.252 505.805"/><rect width="110.714" height="21.616" x="1284.041" y="486.825" fill="#ce926a"/><polygon fill="#af7b58" points="1291.649 511.189 1385.334 520.003 1387.711 508.441 1291.084 508.441"/><path fill="#4a704a" d="M1378.215,529.858c0,0-10.068-9.708-23.012,1.798c-12.944,11.506,7.27,35.602,19.276,41.173
								c12.006,5.571,17.04-12.407,22.074-26.43C1401.587,532.375,1386.844,523.745,1378.215,529.858z"/><path fill="#4a704a" d="M1283.83,644.305c0,0,0.308-10.339-12.427-11.704c-12.736-1.365-15.875,21.683-12.955,31.026
								c2.921,9.343,15.266,3.159,25.446-1.058C1294.074,658.351,1291.467,645.989,1283.83,644.305z"/><path fill="#4a704a" d="M1413.544,577.689c-1.347-4.099-5.296-6.736-9.602-6.46
								c-5.896,0.378-13.604,1.794-16.231,6.452c-4.462,7.911,12.797,38.114,26.82,38.833
								C1425.242,617.063,1417.703,590.342,1413.544,577.689z"/><path fill="#4a704a" d="M1316.558,560.849c-3.429-2.618-8.177-2.56-11.572,0.103
								c-4.649,3.646-10.205,9.174-9.737,14.501c0.794,9.047,32.11,24.194,44.082,16.856
								C1348.475,586.704,1327.145,568.932,1316.558,560.849z"/><path fill="#4a704a" d="M1365.518,584.469c0,0-0.809-15.371-14.562-10.787c-13.754,4.584-18.068,15.102-15.102,26.428
								c2.966,11.326,17.529,18.608,31.822,15.911c14.293-2.697,16.181-12.357,15.371-21.415
								C1382.238,585.548,1365.518,584.469,1365.518,584.469z"/><path fill="#4a704a" d="M1293.965,596.669c0,0-0.809-15.371-14.563-10.787c-13.753,4.584-18.068,15.102-15.102,26.428
								c2.967,11.327,17.529,18.608,31.822,15.911c14.293-2.697,16.181-12.357,15.372-21.415
								C1310.684,597.748,1293.965,596.669,1293.965,596.669z"/><path fill="#4a704a" d="M1410.302,688.967c-1.629,0-3.031-1.228-3.213-2.885
								c-1.443-13.198-13.394-42.121-20.534-59.402c-1.919-4.646-3.436-8.315-4.352-10.722c-4.863-12.764-6.454-74.502-6.526-83.377
								c-0.076-9.424-5.508-31.911-15.618-41.291c-2.905-2.695-5.788-3.898-8.813-3.705c-1.796,0.128-3.326-1.23-3.445-3.013
								c-0.12-1.783,1.23-3.326,3.013-3.445c4.827-0.334,9.424,1.499,13.647,5.418c11.615,10.777,17.6,35.29,17.687,45.983
								c0.13,16.036,2.213,70.917,6.102,81.125c0.885,2.322,2.386,5.956,4.286,10.555c7.272,17.599,19.443,47.056,20.987,61.17
								c0.194,1.777-1.089,3.375-2.865,3.569C1410.538,688.96,1410.42,688.967,1410.302,688.967z"/><path fill="#4a704a" d="M1391.156,590.4c-0.549,0-1.105-0.14-1.615-0.434l-10.246-5.914
								c-1.547-0.893-2.078-2.873-1.185-4.421c0.894-1.547,2.873-2.078,4.421-1.185l10.246,5.914
								c1.547,0.893,2.078,2.873,1.185,4.421C1393.362,589.82,1392.275,590.4,1391.156,590.4z"/><path fill="#4a704a" d="M1366.081,594.85c-1.216,0-2.38-0.688-2.931-1.861c-0.76-1.618-0.064-3.545,1.554-4.304
								l14.023-6.585c1.614-0.761,3.544-0.065,4.304,1.554c0.76,1.618,0.064,3.545-1.554,4.304l-14.023,6.585
								C1367.011,594.752,1366.542,594.85,1366.081,594.85z"/><path fill="#4a704a" d="M1403.981,630.46c0,0-18.715-2.589-20.24,8.376c-1.525,10.965,15.092,28.704,31.392,26.515
								c16.3-2.189,13.357-17.972,10.788-30.14C1423.352,623.044,1409.46,615.041,1403.981,630.46z"/><path fill="#4a704a" d="M1407.718,673.95c0,0,1.105,13.129-1.053,16.5c-2.157,3.371-9.439-4.18-14.428,1.079
								c-4.989,5.259,0.27,24.81-2.562,32.361c-2.832,7.551-2.966,13.484,6.472,10.113c9.439-3.371,14.698-17.37,16.855-26.147
								c2.157-8.776,0.795-17.136,0.929-19.968C1414.067,685.056,1407.718,673.95,1407.718,673.95z"/><path fill="#4a704a" d="M1304.852,542.355c0,0-10.901,7.399-14.897,7.171c-3.996-0.228-0.983-10.276-8.012-12.047
								c-7.029-1.771-21.493,12.397-29.462,13.63c-7.97,1.233-13.207,4.024-5.642,10.599c7.565,6.574,22.345,4.295,31.052,1.874
								c8.707-2.422,15.326-7.708,17.86-8.978C1298.284,553.334,1304.852,542.355,1304.852,542.355z"/><path fill="#4a704a" d="M1278.972,648.515c-0.502,0-1.01-0.117-1.486-0.363c-1.587-0.822-2.207-2.775-1.384-4.362
								c0.163-0.314,16.312-31.713,19.438-57.023c1.037-8.397,1.396-18.328,1.776-28.842c0.801-22.159,1.629-45.073,9.093-57.428
								c11.443-18.942,24.018-16.952,24.549-16.859c1.76,0.312,2.933,1.992,2.621,3.752c-0.309,1.741-1.955,2.91-3.697,2.63
								c-0.462-0.061-9.017-0.936-17.934,13.824c-6.596,10.918-7.394,32.98-8.165,54.315c-0.385,10.658-0.749,20.725-1.82,29.401
								c-3.27,26.477-19.429,57.884-20.115,59.208C1281.272,647.878,1280.142,648.515,1278.972,648.515z"/><path fill="#4a704a" d="M1369.945,477.9c0,0-5.753,9.169,0,17.619c5.753,8.45,31.103,17.574,35.058,12.922
								c3.955-4.652-9.888-39.17-15.641-43.665C1383.608,460.281,1374.979,470.709,1369.945,477.9z"/></g><g><path fill="#ce926a" d="M1722.183,392.36C1722.183,392.36,1722.183,392.36,1722.183,392.36
										c-15.277,0-30.144,2.995-44.186,8.904c-13.518,5.688-25.687,13.821-36.166,24.173
										c-10.48,10.352-18.762,22.419-24.616,35.866c-6.081,13.968-9.26,28.796-9.449,44.073
										c-0.19,15.322,2.639,30.214,8.407,44.262c5.576,13.58,13.644,25.771,23.979,36.235
										c10.334,10.463,22.423,18.68,35.931,24.423c13.974,5.942,28.829,8.954,44.15,8.954c15.277,0,30.144-2.996,44.186-8.904
										c13.518-5.688,25.687-13.821,36.167-24.173c10.48-10.352,18.762-22.419,24.616-35.866
										c6.081-13.968,9.26-28.796,9.449-44.072c0.19-15.322-2.639-30.214-8.407-44.263c-5.576-13.579-13.643-25.771-23.979-36.235
										c-10.334-10.463-22.423-18.68-35.931-24.424C1752.359,395.372,1737.505,392.36,1722.183,392.36L1722.183,392.36
										L1722.183,392.36z"/><ellipse cx="1721.208" cy="505.805" fill="#fcf8eb" rx="93.291" ry="92.143" transform="rotate(-44.83 1721.067 505.832)"/><path fill="#54678c" d="M1684.109,516.762c-0.844,0-1.61-0.574-1.819-1.43c-0.246-1.006,0.369-2.021,1.375-2.267
										l35.878-8.784l9.471-62.445c0.155-1.024,1.11-1.729,2.135-1.573c1.024,0.155,1.728,1.111,1.573,2.135l-9.848,64.928
										l-38.317,9.38C1684.407,516.745,1684.257,516.762,1684.109,516.762z"/><path fill="#54678c" d="M1722.138,432.628c-0.008,0-0.016,0-0.024,0c-1.035-0.013-1.864-0.863-1.852-1.898
										l0.123-9.904c0.013-1.027,0.849-1.852,1.874-1.852c0.008,0,0.016,0,0.024,0c1.035,0.013,1.864,0.863,1.851,1.898
										l-0.123,9.904C1723.999,431.803,1723.162,432.628,1722.138,432.628z"/><path fill="#54678c" d="M1668.795,454.61c-0.484,0-0.967-0.186-1.334-0.557l-6.916-7.003
										c-0.728-0.737-0.72-1.924,0.016-2.652c0.737-0.727,1.924-0.72,2.651,0.017l6.916,7.003c0.728,0.737,0.72,1.924-0.016,2.652
										C1669.747,454.43,1669.271,454.61,1668.795,454.61z"/><path fill="#54678c" d="M1646.156,507.68h-9.904c-1.035,0-1.875-0.839-1.875-1.875c0-1.035,0.84-1.875,1.875-1.875
										h9.904c1.035,0,1.875,0.839,1.875,1.875C1648.031,506.84,1647.191,507.68,1646.156,507.68z"/><path fill="#54678c" d="M1660.391,567.752c-0.484,0-0.967-0.186-1.334-0.557c-0.728-0.737-0.72-1.924,0.016-2.651
										l7.09-7.003c0.736-0.728,1.924-0.72,2.651,0.016c0.728,0.737,0.72,1.924-0.016,2.651l-7.09,7.003
										C1661.344,567.572,1660.867,567.752,1660.391,567.752z"/><path fill="#54678c" d="M1720.156,592.636c-0.008,0-0.016,0-0.024,0c-1.035-0.013-1.864-0.862-1.851-1.898
										l0.123-9.903c0.013-1.028,0.849-1.852,1.874-1.852c0.008,0,0.016,0,0.023,0c1.035,0.013,1.864,0.863,1.852,1.898
										l-0.123,9.903C1722.018,591.812,1721.181,592.636,1720.156,592.636z"/><path fill="#54678c" d="M1780.537,567.753c-0.484,0-0.967-0.186-1.334-0.557l-6.916-7.003
										c-0.728-0.737-0.72-1.924,0.016-2.652c0.737-0.727,1.924-0.72,2.651,0.017l6.916,7.003c0.728,0.737,0.72,1.924-0.016,2.651
										C1781.489,567.573,1781.013,567.753,1780.537,567.753z"/><path fill="#54678c" d="M1806.164,507.68L1806.164,507.68l-9.903,0c-1.036,0-1.875-0.839-1.875-1.875
										c0-1.035,0.84-1.875,1.875-1.875l0,0l9.903,0c1.036,0,1.875,0.84,1.875,1.875
										C1808.039,506.841,1807.199,507.68,1806.164,507.68z"/><path fill="#54678c" d="M1774.935,454.61c-0.484,0-0.967-0.186-1.334-0.557c-0.728-0.737-0.72-1.924,0.016-2.651
										l7.089-7.003c0.736-0.728,1.924-0.72,2.651,0.016c0.728,0.737,0.721,1.924-0.016,2.651l-7.09,7.003
										C1775.887,454.43,1775.411,454.61,1774.935,454.61z"/></g></svg>