<svg xmlns="http://www.w3.org/2000/svg" enable-background="new 0 0 2086.955 2000" viewBox="0 0 2086.955 2000"><path fill="#c4e0f7" d="M856.684,313.603c0,0-404.802,35.944-466.391,253.178
				c-61.589,217.234,37.387,202.498-67.266,386.585S12.01,1560.991,611.522,1799.99s956.773-177.883,1002.176-504.399
				c45.403-326.516-236.247-334.579-225.321-524.07C1399.303,582.031,1548.228,232.864,856.684,313.603z"/><path fill="#6c4e4e" d="M1496.287,1459.496c0,0,8.164-14.286,10.205-65.309c2.041-51.023-38.778-87.76-38.778-87.76
					s-6.123-44.9-28.573-159.192c-22.45-114.292-48.982-181.642-146.946-228.583c-97.964-46.941-222.46-100.005-222.46-100.005
					s-328.588-10.205-373.488,16.327c-44.9,26.532-253.074,106.128-304.097,189.806c-51.023,83.678-61.228,355.12-69.391,455.125
					c-4.08,49.986-13.26,88.755-21.677,115.541c63.423,75.182,162.324,145.497,310.44,204.545
					c261.164,104.115,476.346,83.751,639.811,0.622c0.841-51.799-19.345-84.981-19.345-84.981
					c16.327-30.614,10.205-93.882,10.205-93.882l138.79,91.686c56.166-48.416,102.769-104.846,139.398-164.617
					c1.318-14.128,2.784-24.98,0.397-46.463C1516.697,1465.618,1496.287,1459.496,1496.287,1459.496z"/><path fill="#4a3333" d="M510.754,1411.963c-11.656-37.612-20.053-76.182-25.502-115.174
					c-6.299-45.077-8.087-90.858-5.832-136.302c0.431-8.697-12.836-8.569-13.457,0c-5.663,78.141,1.81,156.759,22.398,232.374
					c5.254,19.294,11.322,38.365,18.196,57.143c3.13,8.551,6.81,16.935,9.735,25.556c3.483,10.266,2.003,18.359-1.321,28.433
					c-6.252,18.951-10.03,38.584-10.873,58.54c-0.839,19.842,2.029,39.514,2.537,59.318c1.062,41.356-12.568,81.101-15.568,122.068
					c5.143,2.801,10.361,5.586,15.672,8.351c1.887-38.245,13.717-75.148,15.88-113.375c1.155-20.406-1.741-40.625-2.373-60.988
					c-0.637-20.524,1.782-40.935,7.517-60.666c2.452-8.435,6.173-16.714,7.014-25.536c0.841-8.82-1.562-17.131-4.669-25.295
					C523.249,1448.377,516.469,1430.405,510.754,1411.963z"/><path fill="#4a3333" d="M443.992,1210.577c-21.864-63.131-43.728-127.884-39.853-195.639
					c0.264-4.626-6.853-4.577-7.175,0c-4.809,68.326,17.394,134.09,39.463,197.724
					C438.071,1217.402,445.651,1215.366,443.992,1210.577z" opacity=".5"/><path fill="#4a3333" d="M1383.025,989.592c-18.939,80.149-50.162,154.314-92.875,224.651
					c-2.522,4.153,3.838,7.789,6.471,3.782c44.745-68.076,76.637-146.862,93.292-226.535
					C1390.847,987.021,1384.088,985.092,1383.025,989.592z" opacity=".5"/><path fill="#4a3333" d="M1210.559,1151.317c-0.945,50.784-5.79,109.76-5.314,160.553c0.106,11.27,17.013,11.206,17.459,0
					c2.023-50.757,1.959-101.603,2.562-152.395C1225.404,1147.923,1210.773,1139.771,1210.559,1151.317z"/><path fill="#4a3333" d="M803.03,1252.006c-17.486-2.979-36.917-1.472-54.647-2.131
					c-18.907-0.703-37.814-1.406-56.721-2.11c-42.712-1.588-86.39-0.829-128.674-7.644c-7.679-1.238-10.984,10.514-3.243,11.762
					c32.885,5.3,66.288,5.639,99.504,6.874c35.113,1.306,70.226,2.612,105.339,3.918c8.778,0.326,17.556,0.653,26.335,0.979
					c1.671,0.062,9.464-0.304,9.932,0.274c0.675,0.834-1.191,9.961-1.374,11.87c-1.652,17.298-3.09,34.618-4.316,51.951
					c-2.499,35.335-4.114,70.732-4.845,106.147c-0.399,19.378-0.535,38.762-0.404,58.144c0.12,17.971,0.872,36.022-2.198,53.769
					c-66.775-1.541-133.89-3.22-199.886-14.339c-2.488-0.419-8.133-0.292-10.152-1.853c-2.626-2.03-2.042-7.749-2.275-10.634
					c-0.666-8.233-1.311-16.467-1.858-24.709c-1.081-16.277-1.227-32.575-2.102-48.857c-1.67-31.073-12.849-59.998-18.404-90.406
					c-3.44-18.827-5.407-37.891-6.028-57.002c13.821,5.663,31.668,4.83,45.745,5.783c20.652,1.398,41.318,2.609,61.977,3.911
					c41.916,2.641,83.837,5.204,125.757,7.786c5.185,0.319,5.167-7.751,0-8.068c-39.257-2.406-78.512-4.839-117.772-7.189
					c-19.296-1.155-38.592-2.309-57.888-3.465c-9.409-0.563-18.824-1.071-28.224-1.779c-9.818-0.739-20.656-0.659-29.769-4.821
					c-0.214-16.117,0.511-32.251,2.123-48.289c0.66-6.566-9.414-6.396-10.189,0c-4.152,34.306-3.858,68.736,0.91,102.966
					c4.898,35.164,18.292,68.703,19.819,104.28c0.728,16.967,1.102,33.908,2.301,50.855c0.625,8.841,1.034,17.8,2.076,26.604
					c0.556,4.692,1.267,8.834,5.11,11.995c4.699,3.863,11.828,3.986,17.577,4.94c9.046,1.502,18.12,2.826,27.211,4.02
					c17.764,2.334,35.598,4.104,53.462,5.467c41.755,3.184,83.634,4.154,125.486,5.12c2.536,0.059,5.337-1.923,5.881-4.477
					c7.288-34.239,3.183-70.923,3.668-105.715c0.523-37.424,2.042-74.835,4.539-112.179c1.248-18.672,2.748-37.328,4.489-55.961
					C812.266,1269.474,817.065,1254.398,803.03,1252.006z" opacity=".5"/><path fill="#1a1a1a" d="M1316.687,1598.278l-118.374-155.11L1079.94,1424.8l28.739,79.25
					c25.531,70.402,63.583,135.607,112.319,192.466l12.011,14.013c13.798-31.827,9.184-88.78,9.184-88.78l43.383,28.66
					L1316.687,1598.278z"/><path fill="#6c4e4e" d="M790.129,788.033c0,0-73.473,0-95.923,26.532c-22.45,26.532-26.532,87.76,42.859,140.823
					c69.391,53.064,204.092,40.818,255.115,22.45c34.027-12.25,108.169-79.596,104.087-140.823
					c-4.082-61.228-212.256-46.941-212.256-46.941L790.129,788.033z"/><path fill="#1a1a1a" d="M717.445,841.671c0,0-4.87-18.943,3.293-27.106c8.164-8.164,71.432-16.327,71.432-16.327
					l220.419,6.123c0,0,57.146,4.082,48.982,24.491c-6.476,16.191-71.432,42.859-71.432,42.859L717.445,841.671z"/><path fill="#464c7b" d="M993.026,347.098c3.427-0.473,6.786-1.44,9.898-2.959c12.645-6.17,18.749-20.029,21.672-33.063
					c1.674-7.465,2.445-15.123,2.679-22.761c0.176-5.734-2.502-19.553,7.494-18.013c10.835,1.669,7.3,19.417,6.583,26.785
					c-2.716,27.889-15.284,60.072-47.018,63.53C985.605,361.568,984.403,348.288,993.026,347.098z"/><path fill="#464c7b" d="M994.828,382.852c0.066-5.692-0.236-11.642,0.65-16.677c1.869-10.625,4.865-21.029,8.148-31.293
						c5.393-16.861,11.699-34.402,8.591-51.829c-3.491-19.578-19.857-36.203-39.377-40.004
						c-6.589-26.848-16.808-55.155-39.779-70.535c-27.141-18.172-64.193-12.521-93.466,1.969
						c-23.453,11.609-44.334,28.379-60.73,48.774c-8.138-3.985-17.834-1.49-26.442,1.338
						c-44.863,14.739-87.787,37.279-121.647,70.193c-33.86,32.915-58.153,76.798-62.629,123.807
						c-3.439,36.115,5.624,73.828,26.597,103.597c5.239,7.436,11.637,13.425,17.533,20.239c3.967,4.585,3.838,3.753,2.08,9.412
						c-1.462,4.705-4.143,9.029-5.51,13.857c-5.085,17.961-3.381,37.93,5.374,54.488c12.142,22.963,37.349,38.412,63.321,38.808
						c1.044,0.016,2.134,0.019,3.066,0.491c0.932,0.472,1.581,1.348,2.195,2.194c9.274,12.783,17.891,20.517,33.26,25.7
						c14.818,4.997,28.536,3.924,43.743,2.88c25.456-4.564,48.352-18.282,69.043-33.798c29.593-22.192,60.481-48.93,71.631-84.775
						c6.513-20.937,20.911-41.192,30.958-60.682c11.175-21.679,22.15-43.461,33.001-65.303c4.326-8.706,8.437-17.527,13.062-26.083
						c4.242-7.848,13.365-16.8,15.946-25.035C994.528,391.133,994.779,387.063,994.828,382.852z"/><path fill="#ea8a6f" d="M760.842,776.964c-3.368,17.191-32.301,45.874-44.186,51.887
						c-6.123,26.532,53.129,119.57,177.56,112.251c138.783-8.164,167.355-112.251,167.355-112.251
						c-67.35-30.614-79.764-57.678-74.911-96.762c-3.175-0.751-7.114-2.475-12.135-5.813
						c-31.149-20.682-76.019-49.912-118.595-77.528c-63.638-41.142-148.09-66.563-148.09-66.563S779.282,682.831,760.842,776.964z"/><path fill="#1a1a1a" d="M898.298,804.36c18.564,9.378,64.926,10.156,100.954-17.753
					c-12.865-16.334-15.173-33.725-12.592-54.518c-3.175-0.751-7.113-2.475-12.135-5.813l-159.688-6.066
					C814.836,720.211,839.1,774.46,898.298,804.36z"/><path fill="#ea8a6f" d="M1024.277,402.74c9.388,25.445,86.178,200.422,61.202,277.215
								c-13.199,40.581-62.484,69.321-97.523,79.652c-107.894,31.814-189.705-21.212-238.01-89.519
								c0,0-105.058-12.09-94.862-108.471c7.495-70.853,85.562,2.37,85.562,2.37s1.479-36.074-5.294-90.387
								c-2.958-23.721,10.403-46.496,32.647-55.25c67.136-26.421,158.294-79.145,170.363-133.022
								C938.362,285.328,1008.882,361.012,1024.277,402.74z"/><path fill="#d45c48" d="M997.805,532.37c-2.577-4.134-9.18-5.466-14.307-2.758c-5.046,2.664-10.093,5.33-15.138,7.995
								c-5.108,2.698-7.311,8.432-4.707,12.611c2.577,4.134,9.18,5.466,14.307,2.758c5.045-2.664,10.091-5.329,15.138-7.995
								C998.206,542.284,1000.409,536.549,997.805,532.37z"/><path fill="#282e4a" d="M860.116,391.07c-11.029,5.165-22.762,8.565-33.518,14.333
								c-10.914,5.852-21.063,13.052-31.738,19.315c-9.629,5.648-1.652,21.062,8.061,15.365
								c10.668-6.258,20.807-13.506,31.737-19.316c10.775-5.727,22.489-9.167,33.518-14.333
								C878.331,401.679,870.278,386.31,860.116,391.07z"/><path fill="#282e4a" d="M1040.795,405.616c-7.287-8.012-15.962-11.023-26.078-13.973
								c-10.628-3.099-16.707,13.127-5.969,16.258c6.695,1.953,13.715,3.258,18.591,8.618
								C1034.814,424.741,1048.3,413.869,1040.795,405.616z"/><path fill="#464c7b" d="M1074.012,543.615c0,0-7.383,17.839-23.126,18.981s-95.662-2.866-148.323,23.345
							c-31.597,15.727-85.114,20.137-123.312-5.95c-38.198-26.088-41.573-85.322-41.573-85.322l-20.74,50.801
							c0,0,15.257,14.662,26.399,39.919c11.141,25.257,15.294,101.757,46.779,99.473c0,0,15.536,111.514,155.663,99.023
							c133.185-11.872,159.144-112.798,144.462-150.008C1090.241,633.876,1120.627,615.537,1074.012,543.615z"/><path fill="#fff" d="M927.983,628.112c21.364-4.479,71.551-16.113,93.2-14.396
							c9.526,0.756-17.985,49.77-39.451,51.347C973.065,665.701,919.636,629.862,927.983,628.112z"/><path fill="#1a1a1a" d="M867.975,472.577c-2.596-0.424-5.25-0.564-7.877-0.497c-9.671,0.248-18.466,2.161-26.768,7.14
						c-4.443,2.665-8.743,5.835-11.563,10.182c-2.369,3.652-4.876,11.149-1.329,14.944c4.184,4.477,8.473-1.229,11.292-4.149
						c7.659-7.933,17.927-13.284,28.845-14.897c4.566-0.675,9.189-0.704,13.792-0.523c2.26,0.089,6.445,0.431,7.443-2.287
						c1.188-3.238-3.075-6.143-5.433-7.302C873.729,473.888,870.889,473.054,867.975,472.577z"/><path fill="#1a1a1a" d="M1042.449,447.509c-5.861-4.501-11.287-4.324-18.159-3.394
						c-5.329,0.721-11.778,2.056-14.517,7.273c-1.417,2.699,0.73,5.358,3.131,6.233c5.301,1.932,11.374-0.556,16.754-0.766
						c3.244-0.126,6.345,0.495,9.393,1.566c2.339,0.822,7.102,4.345,9.536,3.58C1055.498,459.827,1044.86,449.36,1042.449,447.509z"/><path fill="#4a3333" d="M1094.226,847.22c-5.537,34.991-24.84,68.259-50.812,92.94
					c-25.235,23.981-58.705,36.93-92.347,43.796c-68.718,14.026-151.831,12.191-210.199-31.189
					c-29.572-21.979-50.796-53.839-58.34-90.022c-0.741-3.556-6.636-2.808-6.389,0.865c4.976,73.941,75.974,121.598,143.113,134.157
					c39.032,7.301,79.654,6.312,118.81,0.417c36.019-5.423,72.268-16.712,101.365-39.309c34.27-26.615,54.053-66.904,60.389-109.295
					C1100.811,842.915,1095.297,840.456,1094.226,847.22z"/><g><path fill="#6c4e4e" d="M1075.858,1418.677c0,0,208.174,326.547,310.22,355.12
					c102.046,28.573,140.823-91.841,134.701-169.396c-6.123-77.555-34.695-151.028-114.292-173.478c0,0-8.164-10.205-55.105-61.228
					c-46.941-51.023-230.624-226.63-234.706-228.627C1112.594,1139.071,1075.858,1418.677,1075.858,1418.677z"/><path fill="#3a1714" d="M1075.858,1312.55c0,0-15.957,97.263,0,106.128c18.368,10.205,40.818-81.637,40.818-81.637
					L1075.858,1312.55z"/><path fill="#dd775f" d="M1021.881,1048.197c-9.233-3.165-18.812-5.176-28.299-7.469
					c-28.687-6.936-56.658-16.501-84.722-25.638c-9.661-3.145-19.542-6.274-29.701-6.192c-3.202,0.026-6.445,0.385-9.42,1.57
					c-3.486,1.39-6.459,3.866-8.898,6.718c-9.107,10.645-10.74,26.334-6.61,39.721c4.129,13.386,13.31,24.703,23.763,34.029
					c10.453,9.327,22.278,16.962,33.435,25.432c4.473,3.396,8.93,7.025,11.892,11.797c3.017,4.86,4.28,10.569,5.721,16.105
					c3.807,14.621,9.191,28.831,16.027,42.304c7.823,15.417,19.881,31.35,37.095,32.955c13.085,1.219,25.405-6.404,35.02-15.362
					c14.289-13.311,24.956-29.962,35.466-46.421c6.408-10.036,12.855-20.146,17.281-31.201c5.443-13.595,11.432-33.856,0.974-46.163
					C1058.321,1065.576,1040.122,1054.451,1021.881,1048.197z"/><polygon fill="#dd775f" points="985.657 972.056 954.113 1230.421 1012.589 1212.545 1039.121 1067.639"/><path fill="#ea8a6f" d="M859.52,1234.995c0,0,28.573,26.532,51.023,32.655c22.45,6.123,126.537-18.368,126.537-18.368
					l-8.164-57.146l-81.637,32.655L859.52,1234.995z"/><path fill="#fff" d="M773.802,808.442c-8.164,10.205,14.286,395.938,26.532,414.307
						c12.245,18.368,151.028,18.368,159.192,4.082c8.164-14.286,44.9-412.266,44.9-412.266
						C939.116,798.238,781.965,798.238,773.802,808.442z" opacity=".3"/><path fill="#e5eaec" d="M773.802,808.442c-8.164,10.205,14.286,395.938,26.532,414.307
						c12.245,18.368,151.028,18.368,159.192,4.082c8.164-14.286,44.9-412.266,44.9-412.266
						C939.116,798.238,781.965,798.238,773.802,808.442z M949.321,1200.299c-65.31,14.286-142.865,0-142.865,0
						c-20.409-112.251-24.491-389.816-24.491-389.816c124.496-8.164,212.256,8.164,212.256,8.164
						C981.976,965.593,949.321,1200.299,949.321,1200.299z"/><path fill="#f7f7f7" d="M786.212,955.071c3.517,85.16,9.703,187.246,20.245,245.228c0,0,77.555,14.286,142.865,0
						c0,0,16.247-116.776,30.118-237.158C927.476,946.05,809.951,953.374,786.212,955.071z" opacity=".4"/><path fill="#fff" d="M827.52,921.305c-0.721-24.771-0.628-49.597,0.374-74.358c0.742-18.338-27.01-18.013-28.318,0
						c-1.797,24.768-2.655,49.526-2.157,74.358c0.484,24.105-0.68,50.624,8.596,73.225c3.753,9.143,19.547,12.309,21.894,0
						C832.504,970.441,828.228,945.657,827.52,921.305z" opacity=".6"/><path fill="#ea8a6f" d="M898.509,1237.083c0,0,79.384-18.416,83.466-44.948c2.259-14.685-2.041-22.45-4.082-22.45
					c-2.041,0-71.432-10.205-87.759-6.123c-16.327,4.082-73.473,14.286-81.637-8.164c-8.164-22.45,8.164-30.614,26.532-32.655
					c18.368-2.041,55.105-14.287,75.514-14.287c20.409,0,85.719-2.041,85.719-8.164s-40.818-28.573-65.31-28.573
					c-24.491,0-124.496,14.286-130.619-2.041c-6.123-16.328-8.164-32.655,14.286-38.777c22.45-6.123,116.333-20.409,138.783-16.327
					c22.45,4.082,34.696,8.164,38.778,6.123c4.082-2.041-8.164-38.777-22.45-44.9c-14.286-6.123-77.555-12.245-91.841-30.614
					c-14.286-18.368-12.245-32.655-2.041-36.737c10.205-4.082,128.578,12.246,144.905,24.491
					c16.327,12.245,22.45,32.655,28.573,59.187c6.123,26.532,20.409,69.391,24.491,77.555c4.082,8.164,53.064,81.637,53.064,81.637
					s12.954,34.977,4.082,108.169c-8.164,67.351-22.45,106.128-22.45,106.128s-30.614-48.982-40.818-55.105
					c-10.204-6.123-42.859-16.327-59.187-55.105C1008.508,1255.404,917.089,1257.541,898.509,1237.083z"/><path fill="#4a3333" d="M1506.492,1539.092c-4.933-28.256-26.542-58.817-46.452-79.278
					c-9.637-9.904-20.752-18.639-32.726-25.547c-6.301-3.635-13.031-6.175-19.495-9.44c-8.117-4.1-13.079-11.367-18.8-18.205
					c-46.819-55.954-96.417-109.589-148.24-160.939c-29.757-29.484-60.448-58.005-91.779-85.808
					c-8.132-7.216-22.064-1.683-13.954,5.729c52.444,47.927,104.953,104.264,153.248,156.372
					c24.159,26.067,47.69,52.702,70.765,79.733c10.276,12.038,19.987,27.809,33.051,36.932c11.785,8.23,26.014,12.244,37.792,20.944
					c26.777,19.777,62.571,65.919,70.469,97.876C1503.367,1569.591,1508.575,1551.023,1506.492,1539.092z"/><path fill="#4a3333" d="M1250.405,1296.41c-0.291-6.55-10.394-6.618-10.236,0c1.087,45.782,2.706,92.393-7.494,137.365
					c-8.193,36.12-25.935,85.865-63.384,101.076c-6.639,2.697-3.839,13.595,3.014,10.932c38.915-15.124,58.855-61.149,68.897-98.79
					C1254.298,1397.904,1252.644,1346.692,1250.405,1296.41z" opacity=".5"/></g><g><path fill="#3f477a" d="M1814.742,290.479c-65.038-53.906-158.742-49.542-239.807-73.297
				c-44.117-12.928-85.5-34.705-130.406-44.549c-50.519-11.075-116.784-4.869-167.241,5.759
				c-66.37,13.979-131.103,64.447-157.402,127.639c-8.703,20.912-13.637,44.013-9.729,66.324
				c5.003,28.556,23.745,52.831,31.98,80.627c11.028,37.222,2.469,77.768,11.132,115.61c7.716,33.702,28.906,63.307,55.335,85.597
				c26.429,22.29,57.926,37.805,90.177,50.262c125.445,48.453,267.597,52.33,395.496,10.785
				c58.405-18.971,116.24-49.195,150.536-100.134c22.521-33.45,33.293-73.612,37.778-113.686
				C1891.157,424.889,1874.029,339.619,1814.742,290.479z"/><path fill="#fff" d="M1290.54,292.697l2.203,0.552l2.02,0.918l1.836,0.918c4.161,2.203,7.832,5.08,11.017,8.629
				c2.569,2.938,4.957,6.55,7.16,10.833l3.489,6.426c1.346,2.327,2.264,4.53,2.755,6.609c2.323,6.857,3.304,14.386,2.936,22.585
				c-0.122,3.062-0.49,6.183-1.101,9.365l-0.367,1.836c-0.124,0.857-0.246,1.592-0.367,2.203l-0.733,4.039
				c-0.615,3.43-1.716,7.409-3.306,11.935l-1.285,2.938l-1.103,2.938c-0.489,0.857-1.042,1.898-1.653,3.121l-0.733,1.285
				l-0.735,1.285l-0.368,0.367l-0.367,0.735c-1.224,2.816-3.184,5.815-5.874,8.997l-1.837,1.836l-1.836,2.02l-4.039,3.671
				c-1.592,1.592-3.919,3.306-6.977,5.141l-3.673,2.203l-3.856,2.02c-1.836,1.1-5.632,2.323-11.383,3.671
				c-4.654,1.222-9.671,2.081-15.056,2.571h-3.49l-3.304,0.185l-3.488,0.183h-3.305c-2.083,0-3.428-0.918-4.039-2.753
				c-0.248-0.735-0.43-1.348-0.552-1.836l-0.183-0.92l-0.367-0.918c-1.103-4.159-1.899-8.934-2.388-14.321
				c-0.122-0.735-0.245-1.957-0.365-3.673l-0.367-2.018l-0.185-2.388c-0.613-3.915-1.164-7.649-1.653-11.2
				c-0.122-1.344-0.307-3.121-0.55-5.324l-0.183-5.326c-0.248-8.812-0.368-13.891-0.368-15.239l0.183-5.509l0.368-5.509v-1.1
				c-0.124-3.673,0.122-9.302,0.735-16.892l0.735-8.997l0.55-8.997c0.244-1.714,0.427-3.978,0.55-6.794
				c0.122-3.058,0.305-5.324,0.55-6.794c0.122-2.323,1.346-3.856,3.673-4.591l2.938-0.918l2.754-0.918
				c8.323-2.447,16.035-3.365,23.136-2.754c4.65-0.487,11.261,0.551,19.83,3.121L1290.54,292.697z M1261.163,345.578h-0.185
				c0.487,5.265,0.735,11.998,0.735,20.197c0.12,2.083,0.244,4.286,0.367,6.611c0.244,2.936,0.55,5.937,0.918,8.997l0.551,3.304
				c0.367,1.47,1.285,2.144,2.753,2.02l2.755-0.367l2.571-0.367c2.447-0.487,4.224-0.918,5.324-1.285l5.141-2.02
				c3.793-1.468,6.487-3.304,8.079-5.507c5.017-6.12,7.955-12.973,8.812-20.565c0.246-3.549-0.063-6.12-0.918-7.712l-0.55-2.203
				l-0.735-2.203c-1.836-5.876-4.469-10.526-7.895-13.956l-1.285-1.101c-0.491-0.611-1.042-0.979-1.653-1.103l-2.02-0.918
				l-1.836-0.918c-1.468-0.735-2.753-1.285-3.856-1.653c-4.654-1.712-9.18-2.264-13.586-1.653c-2.818,0.615-4.103,2.327-3.856,5.141
				v0.368c0,0.368,0.12,2.51,0.368,6.427V345.578z"/><path fill="#fff" d="M1366.37,393.317c0,1.102,0.061,2.266,0.185,3.488c0.12,1.103,0.183,2.268,0.183,3.488v6.979
				l-0.183,4.406c0,1.592-0.063,2.694-0.185,3.306c0,2.081-1.042,3.245-3.121,3.488h-5.691l-3.121,0.183h-2.388l-2.571,0.185
				l-2.938,0.183h-2.571c-1.716,0.12-3.06,0.183-4.039,0.183c-2.451,0-3.795-1.285-4.041-3.856c-0.122-1.712-0.307-4.159-0.55-7.344
				v-3.489l-0.183-3.671l-0.185-3.673v-3.671c0-6.611,0.244-12.055,0.735-16.341v-6.427c0-0.244-0.124-1.714-0.367-4.406
				c-0.613-11.753-0.674-21.237-0.183-28.462v-1.651l0.368-20.565c0-0.611,0.12-3.978,0.366-10.1l0.367-2.571
				c0.122-1.344,0.918-2.323,2.388-2.938c2.447-1.221,5.385-2.019,8.812-2.386l16.894-1.47h2.386l2.203,0.185h3.856
				c1.838,0,2.999,0.063,3.489,0.183c6.731,0.124,12.914,0.552,18.547,1.285c5.751,0.859,9.915,1.653,12.486,2.388
				c2.079,0.613,3.791,1.468,5.139,2.57c4.776,4.039,8.264,8.875,10.467,14.506c2.814,7.344,3.915,13.71,3.304,19.095
				c-0.733,11.263-5.204,21.363-13.403,30.295c-2.449,2.818-5.692,4.898-9.73,6.244c-1.592,0.489-2.388,1.101-2.388,1.835
				c-0.124,0.492,0.367,1.285,1.47,2.388l5.691,6.059c1.222,1.224,2.571,2.449,4.039,3.671c0.979,0.859,2.203,1.96,3.673,3.306
				c1.344,1.103,3.182,2.753,5.509,4.958c2.571,2.203,4.343,3.854,5.324,4.956c0.487,0.491,2.203,2.327,5.141,5.509l2.386,2.938
				l2.571,2.754l0.552,0.735c0.855,1.592,0.55,2.754-0.918,3.488l-5.141,1.468c-1.594,0.368-5.265,0.983-11.017,1.838l-11.2,1.651
				h-1.103l-1.101,0.185c-1.47,0.244-2.633-0.367-3.488-1.836c-0.859-1.102-1.653-2.14-2.388-3.123
				c-1.224-1.468-2.386-2.873-3.488-4.221c-2.571-3.182-4.591-5.57-6.059-7.162c-3.551-4.161-6.857-7.895-9.915-11.2l-2.938-2.755
				l-3.121-2.753l-5.141-4.591l-0.55-0.55l-0.735-0.55c-0.491-0.244-0.981-0.304-1.47-0.185c-0.613,0.248-0.918,1.165-0.918,2.755
				V393.317z M1367.105,329.421v29.745c0,2.083,1.04,3.001,3.121,2.753c0.244,0,0.429-0.059,0.552-0.183h0.365
				c5.876-1.102,11.322-3.673,16.342-7.712c2.205-1.714,3.856-3.732,4.958-6.059c2.447-5.385,2.447-10.65,0-15.791
				c-1.836-3.915-4.713-6.242-8.63-6.977c-0.615-0.12-1.777-0.305-3.488-0.55h-1.836l-2.02-0.185
				c-1.959,0.124-4.162,0.492-6.611,1.103C1367.899,326.054,1366.981,327.34,1367.105,329.421z"/><path fill="#fff" d="M1449.363,393.134v-4.224l-0.185-4.406l-0.183-4.224v-9.365l0.183-2.386l0.185-2.388
				c0.12-0.735,0.12-1.529,0-2.386c0-0.611-0.063-1.346-0.185-2.205c-0.246-1.101-0.246-2.506,0-4.221l0.185-4.224l0.183-10.833
				v-10.835l0.735-22.951l0.183-3.488v-3.306c0.244-1.955,1.163-3.182,2.755-3.671l0.918-0.185h0.735l0.733-0.183h0.368
				c3.182-0.12,7.405,0.183,12.67,0.918c0.365,0.124,0.977,0.183,1.836,0.183h1.101l1.285,0.185l2.02,0.183l2.02,0.185h1.1
				c3.306,0,5.02,1.653,5.141,4.957c0,7.96-0.674,16.772-2.018,26.441c-1.226,5.387-1.47,11.2-0.735,17.442l0.183,1.837v2.019
				l0.552,7.344l0.365,7.529c0.246,1.716,0.246,3.98,0,6.794v7.712c-0.245,11.751-0.365,18.301-0.365,19.645
				c0,5.141,0.059,8.386,0.183,9.732c0,2.203-0.367,3.671-1.102,4.406c-0.733,0.735-2.142,1.042-4.222,0.918l-11.017-0.368h-5.324
				l-5.326,0.185c-0.367,0.246-0.857,0.246-1.468,0c-1.836-0.244-2.818-1.222-2.938-2.938l-0.55-6.427v-4.591l-0.185-4.589
				L1449.363,393.134z"/><path fill="#fff" d="M1527.948,357.513c-0.124,0.735-0.185,1.898-0.185,3.488v2.203l-0.183,2.755
				c-0.124,3.551-0.307,6.366-0.552,8.445l-0.733,6.794l-0.735,10.1c-0.124,2.203-0.183,6.916-0.183,14.136
				c0,4.408-0.063,7.285-0.185,8.63c0,2.694-1.409,4.164-4.223,4.408h-2.936l-13.588,0.733h-2.938l-2.938,0.185
				c-1.959,0-2.936-0.979-2.936-2.938c-0.248-2.079-0.248-4.161,0-6.242l0.55-4.776l0.55-4.957c0.12-1.59,0.244-3.365,0.367-5.324
				l0.183-2.205l0.185-2.018v-2.203c0-0.979,0.059-1.897,0.183-2.755v-4.957l0.735-10.283c0.244-5.629,0.367-8.751,0.367-9.365
				c0.244-2.447,0.426-5.202,0.55-8.262v-4.041l0.183-4.222v-2.755l0.367-9.547v-6.609c0.244-2.081,0.429-5.02,0.552-8.815
				c0.12-3.549,0.303-6.427,0.55-8.63c0.244-2.203,0.67-4.591,1.285-7.162c0.368-1.712,1.529-2.57,3.489-2.57l3.121-0.183h3.121
				l3.49-0.183l3.304-0.185l3.488-0.367c1.346-0.244,2.507-0.244,3.49,0l2.203,0.185h2.018c2.081,0,3.549,0.981,4.408,2.938
				l0.733,2.203l0.552,1.101l0.365,0.918l2.571,4.774c0.855,1.594,1.775,3.123,2.755,4.591c2.571,3.919,4.711,7.897,6.427,11.935
				c1.468,3.06,2.814,5.387,4.039,6.977c3.182,3.795,7.405,9.856,12.67,18.177l0.918,1.285l1.1,1.47
				c0.122,0.246,0.855,1.042,2.203,2.386c0.489-0.487,0.796-1.038,0.92-1.653l0.183-0.918v-0.55l0.183-0.735v-15.056l0.185-4.589
				c0-2.814,0.12-5.814,0.368-8.997v-5.326l-0.185-5.141v-2.203c0-0.977,0.061-1.897,0.185-2.753v-4.774l0.183-1.285v-1.103
				c0-2.079,0.918-3.182,2.753-3.304c1.223-0.122,3.978-0.185,8.264-0.185h2.386l1.47,0.185h1.285l4.039,0.366l4.039,0.185
				c2.081,0.246,3.49,1.285,4.224,3.121c0.487,0.859,0.855,2.083,1.102,3.673v4.039c0,4.654,0.059,7.651,0.183,8.997l0.735,12.668
				c0.244,1.838,0.426,4.041,0.55,6.611l0.185,6.794l0.365,7.527c0.246,2.818,0.246,5.324,0,7.529
				c-0.245,4.406-0.122,7.834,0.368,10.281v1.653l-0.368,6.244l-0.365,5.141l-0.185,5.324v4.591l-0.183,4.589v1.653l-0.185,1.838
				l-0.367,3.304l-0.366,2.02l-0.185,1.835l-0.733,3.673c-0.124,1.592-1.042,2.754-2.755,3.488
				c-4.039,1.468-8.447,2.571-13.221,3.306h-3.856l-7.527-0.367l-3.856-0.367c-1.716-0.244-2.938-1.162-3.673-2.755l-2.571-5.692
				l-5.692-10.098l-0.918-1.653l-0.55-1.653l-0.735-1.468l-0.918-1.653l-2.57-6.244l-1.468-2.938l-1.47-2.569l-7.895-12.303
				c-0.859-1.714-2.327-4.1-4.406-7.161l-2.388-3.304l-2.203-3.673c-0.491-0.855-1.224-1.468-2.203-1.836
				c-0.368,0.367-0.674,1.101-0.918,2.203V357.513z"/><path fill="#fff" d="M1650.046,341.722l0.918-0.918l3.673-4.589l4.039-4.776c2.938-3.671,5.629-6.914,8.08-9.73
				l8.262-9.915c3.425-4.161,6.548-9.058,9.365-14.689c0.979-1.714,2.14-2.571,3.488-2.571l2.02,0.183l2.02,0.183
				c5.996,0.615,11.994,1.533,17.992,2.755l4.959,0.55c3.182,0.368,3.793,1.836,1.836,4.406c-3.671,4.897-6.916,9.915-9.73,15.056
				l-1.838,2.756l-2.018,2.938c-1.47,1.96-2.634,3.919-3.488,5.874c-1.102,1.716-2.02,3.245-2.755,4.591
				c-1.224,1.836-2.386,3.551-3.488,5.141l-3.488,4.774l-3.306,4.774c-0.49,0.859-1.285,1.835-2.386,2.938l-1.47,1.468l-1.468,1.47
				c-1.592,1.592-1.592,3.121,0,4.589l2.938,2.571l2.753,2.571c5.385,5.021,9.485,9.365,12.303,13.038l6.792,8.63l6.611,8.63
				l5.509,7.712l0.367,0.368l0.183,0.365l0.367,0.368l0.183,0.368c1.346,2.203,0.796,3.488-1.653,3.856
				c-1.1,0.367-2.203,0.55-3.304,0.55l-4.774,0.367l-4.774,0.185c-4.041,0.122-7.224,0.307-9.549,0.55l-3.304,0.368
				c-1.47,0-2.756-0.672-3.856-2.02l-4.959-6.427l-5.141-6.242l-6.059-5.876l-2.571-2.203l-2.571-2.388
				c-0.857-0.733-1.775-1.529-2.753-2.386l-1.285-1.285l-1.103-1.103l-5.141-5.141c-2.449-2.447-4.162-4.1-5.141-4.957
				c-0.857-0.735-1.592-0.979-2.203-0.735l-0.183,0.55v0.552c-0.124,0.246-0.185,0.43-0.185,0.55c0,0.981,0.122,4.039,0.368,9.18
				l0.185,4.591l0.365,4.591v2.386l0.185,2.203c0.244,1.959,0.244,3.612,0,4.958v7.527l-0.185,7.529
				c-0.122,1.592-1.04,2.57-2.753,2.938c-2.938,0.245-4.591,0.366-4.957,0.366l-16.159,1.47c-0.857,0.124-2.938,0.183-6.244,0.183
				c-1.592,0-2.571-0.855-2.936-2.571c-0.124-0.243-0.185-0.918-0.185-2.018c0-7.712-0.063-12.67-0.183-14.873v-7.162
				c-0.124-1.344-0.185-2.753-0.185-4.222v-2.938l0.185-4.774c0.12-1.957,0.12-3.549,0-4.774c-0.124-3.182,0.183-8.751,0.918-16.709
				c0.244-5.629,0.368-8.814,0.368-9.547l0.367-18.547l0.183-8.629c0.12-3.058,0.305-5.874,0.55-8.445
				c0.735-7.834,1.773-14.139,3.123-18.912c0.611-2.081,1.955-3.121,4.039-3.121h5.509c2.079-0.246,4.343-0.246,6.794,0l6.609,0.183
				c1.59,0,2.508,0.063,2.753,0.183c1.714,0.367,2.632,1.348,2.755,2.938v7.529l-0.185,3.488c-0.246,1.716-0.368,3.612-0.368,5.692
				l-0.183,2.753l-0.367,2.938v1.47l-0.735,13.586l-0.366,8.447c0,1.224,0.366,2.02,1.101,2.386L1650.046,341.722z"/><path fill="#fff" d="M1309.452,534.727l-0.185,0.367l-2.203,7.344c-1.959,5.509-3.304,11.324-4.039,17.444
				c-0.248,2.327-0.55,4.102-0.918,5.324c-2.327,10.039-4.715,18.486-7.162,25.339c-0.735,1.959-2.142,3.245-4.223,3.856
				l-6.427,0.735c-2.692,0.368-4.837,0.491-6.426,0.368h-4.774l-4.774,0.183l-4.406-0.183l-4.406-0.185h-2.388l-2.386,0.185
				c-1.959,0.124-3.306-0.735-4.041-2.571c-1.224-3.182-2.142-6.12-2.754-8.814l-0.918-4.039l-1.102-4.039l-1.285-5.876
				l-1.285-5.692c-0.857-4.041-1.592-7.834-2.203-11.385c-0.248-0.979-0.491-2.386-0.735-4.223l-0.367-2.571l-0.366-2.936
				l-0.552-4.959l-0.55-4.958c-1.103-6.362-2.142-13.403-3.121-21.115l-0.918-6.426l-0.92-6.242
				c-0.857-5.141-1.348-9.302-1.468-12.486c-0.246-2.938-0.368-4.528-0.368-4.774c-0.124-2.203,0.918-3.306,3.121-3.306
				l18.179,0.367l3.121,0.367l2.938,0.368c1.956,0.367,3.121,1.592,3.489,3.671c0.12,0.491,0.305,1.348,0.55,2.571l0.367,2.57
				l1.102,6.427l1.101,6.426c1.346,9.304,2.875,17.994,4.591,26.074c0.611,2.449,1.101,4.836,1.468,7.159l0.552,3.673l0.55,3.671
				l0.183,0.552l0.185,0.55l0.55,1.653c0.244,0.489,0.611,1.041,1.103,1.653c0.488-0.243,0.794-0.611,0.918-1.102l0.183-0.55
				l0.367-0.55c0.244-0.735,0.735-2.632,1.468-5.693l0.552-2.753l0.55-2.938c0.979-5.876,2.02-11.077,3.121-15.607l3.856-15.791
				c0.244-0.735,0.428-1.346,0.55-1.836c0.246-0.735,0.428-1.285,0.552-1.653c0.367-0.979,0.794-2.323,1.285-4.039l0.55-2.02
				l0.735-2.388l0.918-4.221l0.918-4.223c0.12-1.838,0.426-3.306,0.918-4.408c0.367-1.588,1.285-2.386,2.753-2.386
				c3.425-0.488,7.833-0.735,13.221-0.735h2.02c0.735,0,1.468,0.063,2.203,0.185l4.224,0.366H1319l2.203,0.185
				c1.958,0,3.306,0.798,4.039,2.386c0.49,0.859,1.531,3.001,3.123,6.426c2.691,5.633,4.711,11.448,6.059,17.444
				c0.487,3.062,1.712,7.836,3.671,14.321l0.367,1.102l0.55,1.468c0.367,1.103,0.672,2.144,0.92,3.121l1.836,5.693l1.653,5.324
				l1.101,1.653c0.611-0.244,0.979-0.611,1.103-1.102l0.183-0.55l0.185-0.55l2.753-8.447l0.185-0.55l0.183-0.55l0.55-1.653
				c0.979-2.325,1.958-5.813,2.938-10.467l3.489-16.525l0.735-4.223l0.55-4.039l0.735-3.121l0.55-2.938
				c0.611-1.837,1.773-2.814,3.488-2.938l6.244-0.918c2.814-0.244,4.894-0.428,6.242-0.552l15.241-0.55
				c2.938-0.244,4.343,1.102,4.223,4.041c0,2.325-0.368,5.815-1.103,10.465c-0.248,0.857-0.491,2.02-0.735,3.489l-0.368,2.203
				l-0.366,2.203l-0.735,3.856l-0.55,4.041l-0.735,5.874c-0.124,0.983-0.247,2.083-0.367,3.306l-0.183,1.285l-0.185,1.285
				c-0.49,3.919-1.348,7.344-2.571,10.282c-0.124,0.613-0.489,1.653-1.101,3.121l-0.552,2.02l-0.733,2.018l-1.285,3.49l-1.285,3.671
				l-4.774,14.689c-1.35,3.429-2.388,6.489-3.123,9.182c-0.489,1.592-1.042,3.734-1.653,6.427l-1.285,6.609l-0.918,3.671
				l-0.918,3.49l-0.368,2.018l-0.368,1.838c-0.245,1.348-0.428,2.51-0.55,3.488c-0.368,2.081-1.653,3.489-3.856,4.221
				c-3.795,1.226-7.957,1.47-12.486,0.735c-2.203-0.244-3.368-0.367-3.488-0.367h-2.203c-0.981,0-1.899-0.059-2.754-0.183h-4.776
				c-1.959,0-3.854,0.183-5.692,0.551c-2.203,0.247-3.612,0.124-4.223-0.367c-0.857-0.611-1.592-1.897-2.203-3.856l-0.55-1.651
				l-0.368-1.653c-0.246-0.855-0.489-1.896-0.735-3.123c-0.122-0.855-0.366-2.018-0.733-3.488l-0.368-1.836l-0.367-2.02
				l-0.918-3.671l-0.918-3.673c-0.491-1.101-0.798-2.447-0.918-4.039l-0.368-2.02l-0.367-2.02c-0.124-0.733-0.307-1.651-0.55-2.753
				l-0.368-1.653l-0.367-1.653l-0.735-2.936l-0.733-3.123l-4.408-15.424c-0.122-1.468-0.733-2.506-1.836-3.121
				c-0.246,0.491-0.43,0.918-0.55,1.285V534.727z"/><path fill="#fff" d="M1504.448,592.198c0,1.468-0.798,2.451-2.388,2.938c-0.735,0.246-1.531,0.368-2.386,0.368
				l-2.571,0.183l-5.509,0.367l-3.121-0.183h-3.123c-3.06,0-5.019,0.063-5.874,0.183c-2.818,0.367-4.408-0.855-4.774-3.673
				l-2.388-13.586l-1.653-11.568c-0.368-1.958-0.798-3.182-1.285-3.673c-0.613-0.609-1.836-1.161-3.671-1.651
				c-4.898-0.979-8.938-1.47-12.12-1.47c-3.919,0-6.49-0.059-7.71-0.183c-1.959-0.122-3.062,0.735-3.306,2.57l-0.55,3.671
				l-0.367,3.305c-0.124,1.224-0.248,2.51-0.368,3.856l-0.185,1.653l-0.183,1.653l-0.55,5.507l-0.735,5.509
				c-0.124,1.959-0.431,3.612-0.918,4.958c-0.613,1.96-1.959,3.001-4.039,3.121l-15.424,1.468c-1.716,0.248-3.673,0.367-5.876,0.367
				l-2.938,0.185l-3.121,0.367c-0.859,0-1.348-0.061-1.468-0.185c-1.838-0.244-2.571-1.285-2.205-3.121l0.735-3.488l0.55-3.488
				l4.041-20.382l0.368-1.468l0.365-1.653c0.246-1.59,0.49-2.938,0.735-4.039l1.47-6.979l3.856-18.36
				c0.12-0.611,0.303-1.773,0.55-3.488l0.368-3.306c1.468-9.18,3.241-17.871,5.324-26.074l4.223-17.627l0.368-1.468l0.55-1.653
				c0.735-2.814,2.57-4.282,5.509-4.406c8.812-0.979,15.056-1.285,18.727-0.918c0.49,0.124,1.285,0.183,2.388,0.183h1.653
				l1.836,0.185c2.203,0,4.16,0.122,5.876,0.366l11.016,1.47l12.853,1.468c1.835,0.124,3.121,0.552,3.856,1.285l0.185,0.552
				l0.183,0.733c0.244,0.735,0.426,1.533,0.55,2.388l1.47,12.118l0.367,4.406c0.244,2.203,0.426,3.736,0.55,4.591l0.735,8.812
				c0.366,3.062,0.733,5.939,1.1,8.63l1.285,7.346l1.285,7.345l1.468,9.363c0.489,2.695,0.855,5.693,1.102,8.997l0.55,5.509
				l0.552,5.509l0.733,6.427l0.552,6.609c0,2.451,0.059,3.98,0.183,4.591L1504.448,592.198z M1467.357,531.791l-0.183-0.185
				l-0.735-6.609l-0.918-6.611l-0.918-4.222l-0.918-4.223c-0.367-1.59-1.285-2.447-2.753-2.571l-2.388-0.185l-2.571-0.183
				c-1.348,0-2.327,0.735-2.938,2.203c-0.245,0.615-0.43,1.409-0.55,2.388l-0.55,2.386c-0.615,2.327-1.165,4.959-1.653,7.897
				l-1.285,7.895c-0.491,1.224-0.859,2.51-1.103,3.856c-0.368,2.083,0.487,3.001,2.571,2.753c0.611,0,0.979-0.059,1.103-0.183
				l13.036-0.735c1.836-0.244,2.753-1.344,2.753-3.306V531.791z"/><path fill="#fff" d="M1574.219,545.562c0,7.466,0.059,12.301,0.183,14.504v6.611c0,2.083,0.12,4.345,0.368,6.794
				c0.611,4.53,0.794,9.119,0.55,13.771c0,0.49-0.124,2.571-0.368,6.242c-0.122,1.959-1.224,3.062-3.304,3.306l-5.141,0.55
				l-5.141,0.735c-2.571,0.367-5.326,0.307-8.262-0.185l-4.224-0.55l-4.223-0.55c-1.959-0.122-2.938-1.285-2.938-3.488
				c0.244-6.855,0.367-10.711,0.367-11.568c0.12-0.855,0.183-2.692,0.183-5.509l0.368-20.38v-2.021l0.367-1.836
				c0.12-0.735,0.185-1.407,0.185-2.02v-1.47l-0.185-5.692l-0.367-5.691c0-2.323,0.061-3.793,0.185-4.406v-7.712
				c0-0.855-0.124-5.078-0.368-12.67c0-0.855-0.063-1.344-0.185-1.468c-0.366-1.222-1.101-1.836-2.203-1.836h-1.468l-1.47,0.183
				c-0.733,0-1.714,0.124-2.936,0.368c-4.654,0.981-9.06,1.592-13.221,1.836h-0.55l-0.735,0.185c-1.716,0-2.754-0.735-3.121-2.203
				c-0.859-1.714-1.285-3.734-1.285-6.061c0-1.22-0.124-5.75-0.368-13.586c-0.248-2.203-0.615-4.284-1.103-6.244v-0.183
				c-0.124-0.12-0.183-0.305-0.183-0.55c-0.615-2.814,0.67-4.344,3.856-4.591l5.324-0.183l5.326-0.185h4.774l4.589,0.185
				c2.571,0,5.693-0.122,9.365-0.367c1.836-0.122,3.732-0.244,5.692-0.368c2.571-0.243,5.141-0.55,7.712-0.918
				c1.346-0.122,4.406-0.185,9.182-0.185l3.671-0.183h3.856l9.915,0.55c1.836,0.124,3.673,0.124,5.509,0
				c2.323,0,3.549,1.165,3.671,3.488l0.185,9.915v11.385l-0.185,1.468c-0.246,2.083-1.285,3.186-3.121,3.306
				c-1.348,0.491-2.938,0.735-4.774,0.735l-10.282,0.365h-1.653c-0.733-0.12-1.348-0.12-1.836,0c-1.348,0.248-2.02,1.042-2.02,2.388
				v2.938c0.367,5.755,0.92,11.507,1.653,17.259c0.122,0.124,0.185,0.674,0.185,1.653V545.562z"/><path fill="#fff" d="M1675.573,497.822v1.101c-0.124,1.592-0.983,2.57-2.57,2.938
				c-0.615,0.124-1.592,0.185-2.938,0.185c-1.716,0.246-4.53,0.489-8.447,0.733l-8.445,0.185l-4.591,0.365l-4.774,0.552
				c-1.959,0.368-2.938,1.653-2.938,3.856c-0.124,2.327-0.124,4.713,0,7.16v2.938c0,0.859,0.12,1.901,0.367,3.121
				c0.12,1.47,0.918,2.268,2.386,2.388c0.611,0.124,1.164,0.124,1.653,0h10.283c4.161,0,6.855,0.063,8.079,0.183
				c4.894,0.248,9.608,0.615,14.138,1.103c2.203,0.124,3.426,1.409,3.671,3.856l1.103,14.321c0.244,2.203,0.367,3.551,0.367,4.041
				c0,1.716-0.798,2.754-2.388,3.121l-2.571,0.367l-2.386,0.55c-2.083,0.367-3.736,0.491-4.958,0.367h-0.918l-0.735-0.185h-1.651
				c-2.938-0.12-6.307,0.065-10.1,0.552l-5.141,0.55l-4.957,0.735l-4.591,0.55c-1.47,0.491-2.203,1.285-2.203,2.388
				c-0.248,3.919-0.367,6.059-0.367,6.424c-0.124,0.615-0.185,2.02-0.185,4.224c0,1.592,1.04,2.512,3.123,2.755
				c3.549,0.246,6.242,0.122,8.079-0.367c2.323-0.487,6.242-0.735,11.751-0.735h8.445l4.041,0.185h4.223
				c1.223,0,1.955,0.063,2.203,0.183c1.468,0.367,2.264,1.285,2.386,2.753v2.388l0.367,5.324l0.185,5.326
				c0.12,0.733,0.059,2.877-0.185,6.427v2.203c-0.245,1.716-1.1,2.694-2.57,2.938c-2.449,0.49-5.509,0.796-9.18,0.918h-3.306
				l-3.488,0.183l-6.059,0.55c-2.694,0.367-6.857,0.552-12.486,0.552c-8.079-0.611-15.424-0.122-22.033,1.468
				c-4.041,0.855-7.407,1.103-10.1,0.735c-0.733-0.248-1.592-0.248-2.571,0l-2.571,0.183c-2.449,0.122-3.612-0.981-3.488-3.304
				c0.122-2.571,0.428-4.896,0.918-6.979v-15.607c0.122-7.221,0.428-13.403,0.918-18.545c0.245-5.261,0.611-10.526,1.102-15.791
				l1.653-21.665l0.918-10.283c0.244-5.141,0.368-8.506,0.368-10.098c0.244-2.205,0.427-4.591,0.55-7.162l0.735-6.794l0.55-4.956
				c0.244-2.814,1.714-4.284,4.406-4.408h2.755c0.979-0.12,3.058-0.183,6.242-0.183h3.123l3.121,0.183l5.509-0.367
				c0.977-0.12,2.018-0.183,3.121-0.183h2.571c0.979-0.12,3.732-0.061,8.262,0.183c5.996,0.735,10.158,1.042,12.486,0.92
				c0.735-0.122,2.57-0.061,5.509,0.183c1.955,0,3.121,0.918,3.488,2.753c0.244,1.226,0.368,2.144,0.368,2.755v4.774l-0.185,2.203
				L1675.573,497.822z"/><path fill="#fff" d="M1728.269,572.919c0,1.103,0.061,2.266,0.185,3.488c0.12,1.103,0.183,2.268,0.183,3.488v6.979
				l-0.183,4.406c0,1.592-0.063,2.694-0.185,3.306c0,2.081-1.042,3.245-3.121,3.488h-5.691l-3.121,0.183h-2.388l-2.571,0.185
				l-2.938,0.183h-2.571c-1.716,0.12-3.06,0.183-4.039,0.183c-2.451,0-3.795-1.285-4.041-3.856c-0.122-1.712-0.307-4.159-0.55-7.344
				v-3.488l-0.183-3.671l-0.185-3.673v-3.671c0-6.611,0.244-12.055,0.735-16.341v-6.427c0-0.243-0.124-1.714-0.368-4.406
				c-0.613-11.752-0.674-21.237-0.183-28.462v-1.651l0.368-20.565c0-0.611,0.12-3.978,0.366-10.1l0.367-2.57
				c0.122-1.344,0.918-2.323,2.388-2.938c2.447-1.221,5.385-2.018,8.812-2.386l16.894-1.47h2.386l2.203,0.185h3.856
				c1.837,0,2.999,0.063,3.488,0.183c6.731,0.124,12.914,0.552,18.547,1.285c5.75,0.859,9.915,1.653,12.486,2.388
				c2.079,0.613,3.791,1.468,5.139,2.571c4.776,4.039,8.264,8.875,10.467,14.506c2.814,7.345,3.915,13.71,3.304,19.095
				c-0.733,11.263-5.204,21.363-13.404,30.295c-2.449,2.818-5.692,4.898-9.73,6.244c-1.592,0.489-2.388,1.1-2.388,1.836
				c-0.124,0.491,0.367,1.285,1.47,2.388l5.691,6.059c1.222,1.224,2.571,2.449,4.039,3.671c0.979,0.859,2.203,1.959,3.673,3.305
				c1.344,1.103,3.182,2.753,5.509,4.958c2.571,2.203,4.343,3.854,5.324,4.957c0.487,0.491,2.203,2.327,5.141,5.509l2.386,2.938
				l2.57,2.753l0.552,0.735c0.855,1.592,0.55,2.753-0.918,3.488l-5.141,1.468c-1.594,0.367-5.265,0.982-11.017,1.837l-11.2,1.651
				h-1.103l-1.101,0.185c-1.47,0.244-2.633-0.368-3.488-1.836c-0.859-1.103-1.653-2.14-2.388-3.123
				c-1.224-1.468-2.386-2.873-3.489-4.222c-2.571-3.182-4.591-5.57-6.059-7.162c-3.552-4.16-6.857-7.894-9.915-11.2l-2.938-2.755
				l-3.121-2.753l-5.141-4.591l-0.55-0.55l-0.735-0.55c-0.491-0.244-0.981-0.305-1.47-0.185c-0.613,0.248-0.918,1.165-0.918,2.755
				V572.919z M1729.004,509.022v29.745c0,2.083,1.04,3.001,3.121,2.753c0.244,0,0.429-0.059,0.552-0.183h0.366
				c5.876-1.103,11.322-3.673,16.341-7.712c2.205-1.714,3.856-3.732,4.958-6.059c2.447-5.385,2.447-10.65,0-15.791
				c-1.836-3.915-4.713-6.242-8.63-6.977c-0.615-0.12-1.777-0.305-3.488-0.55h-1.836l-2.021-0.185
				c-1.959,0.124-4.162,0.491-6.611,1.102C1729.798,505.656,1728.881,506.941,1729.004,509.022z"/></g></svg>