<svg xmlns="http://www.w3.org/2000/svg" viewBox="0 0 2590 1942.5"><path fill="#ea5a3d" d="M754.94,1116.32c81.81-36.45,196.34-79.71,323.06-109.35s345.75-52,345.75-52,261.2-43.77,424,53.66,244.77,252.91,268.68,327.56l-419.66,218.29-548.43,90.4-313.41-45.38Z"/><path fill="#efe3dd" d="M1384.94,1218.18c-95.25,0-176.61,59.21-209.45,142.8q5.7,26.49,11.37,53c9.47,44.46,18.57,89,25.82,133.9q3.83,23.73,6.58,47.54a224.39,224.39,0,0,0,165.68,72.8c124.26,0,225-100.74,225-225S1509.2,1218.18,1384.94,1218.18Z"/><path fill="none" stroke="#000" stroke-linecap="round" stroke-linejoin="round" stroke-width="3.43" d="M1248.72,980.84c6.88,31.65,44.74,87.06,121.79,98.39,70.59,10.38,121.77-1.64,178.91-37.54,53.62-33.69,76.3-92.82,76.3-92.82"/><path fill="none" stroke="#000" stroke-linecap="round" stroke-linejoin="round" stroke-width="3.43" d="M1633.84,1250.15C1651.32,1343.31,1726,1514,1726,1514"/><path fill="none" stroke="#000" stroke-linecap="round" stroke-linejoin="round" stroke-width="3.43" d="M2091.05,1288.4c-68.53,10.76-304.81,130.3-374.58,192.75"/><path fill="none" stroke="#000" stroke-linecap="round" stroke-linejoin="round" stroke-width="3.43" d="M1603.21,1306.68c20.52,38.33,66.93,76.48,66.93,76.48"/><path fill="none" stroke="#000" stroke-linecap="round" stroke-linejoin="round" stroke-width="3.43" d="M830.75,1090.86c23.57,70.85,63.94,335.1,61.81,461.13"/><path fill="none" stroke="#000" stroke-linecap="round" stroke-linejoin="round" stroke-width="3.43" d="M1143.58,1224.63c11.57,54,53,211.57,49.77,269.61"/><path fill="#0fb9d3" d="M2001.52,266a257.51,257.51,0,0,0-28.11-1.54V157.63a365.68,365.68,0,0,1,39.77,2.17Z"/><path fill="#0fb9d3" d="M2019.41,877.35l-13.48-106a252.52,252.52,0,0,0,55.63-13.61l37,100.23A360.14,360.14,0,0,1,2019.41,877.35ZM2104,855.93l-38.63-99.61a254.42,254.42,0,0,0,50.74-26.62l60,88.39A360.83,360.83,0,0,1,2104,855.93Zm76.88-41.14-61.39-87.44a256.41,256.41,0,0,0,43-38.05l79.34,71.54A362.86,362.86,0,0,1,2180.88,814.79Zm64.78-58.3-80.46-70.28A254.64,254.64,0,0,0,2197.84,639L2292,689.53A362,362,0,0,1,2245.66,756.49Zm49.05-72.13-94.95-49a252.8,252.8,0,0,0,20.32-53.56l103.54,26.3A359.15,359.15,0,0,1,2294.71,684.36Zm30.3-81.9-104-24.61a255.76,255.76,0,0,0,6.83-57l106.83.78A362.51,362.51,0,0,1,2325,602.46Zm-97.13-85.7a255.9,255.9,0,0,0-6.89-57l103.94-24.72a363.22,363.22,0,0,1,9.78,80.79ZM2220,455.81a253,253,0,0,0-20.37-53.53l94.91-49.06a360.09,360.09,0,0,1,29,76.17Zm-22.28-57.16a255.48,255.48,0,0,0-32.68-47.14l80.42-70.33a361.78,361.78,0,0,1,46.36,66.9Zm-35.4-50.2a256.29,256.29,0,0,0-43-38l61.33-87.48a364.18,364.18,0,0,1,61,53.9Zm-46.41-40.38a254,254,0,0,0-50.79-26.59l38.52-99.65a361,361,0,0,1,72.18,37.79Zm-54.62-28a253.77,253.77,0,0,0-55.69-13.56l13.36-106a360.56,360.56,0,0,1,79.2,19.29Z"/><path fill="#0fb9d3" d="M1973.41,880.26V773.43a260,260,0,0,0,28.11-1.53l11.66,106.2A368.21,368.21,0,0,1,1973.41,880.26Z"/><path fill="#0fb9d3" d="M1973.41,880.26a368.25,368.25,0,0,1-39.78-2.16l11.66-106.2a260.08,260.08,0,0,0,28.12,1.53Z"/><path fill="#8cddea" d="M1854.54,860.24a360.94,360.94,0,0,1-73-35.1l56.81-90.49a253.24,253.24,0,0,0,51.37,24.7ZM1718.18,774.7a363.69,363.69,0,0,1-50.56-63.21l90.36-57a256.75,256.75,0,0,0,35.67,44.59Zm-85.82-136.16a360.61,360.61,0,0,1-18-79l106.17-11.89a253.83,253.83,0,0,0,12.67,55.54Zm88.13-148.07-106.18-11.8a360.27,360.27,0,0,1,18-79.05l100.85,35.26A253.17,253.17,0,0,0,1720.49,490.47Zm37.39-106.92-90.4-56.93A363,363,0,0,1,1718,263.37L1793.51,339A255.94,255.94,0,0,0,1757.88,383.55Zm80.26-80.21-56.87-90.44a360.91,360.91,0,0,1,73-35.15l35.22,100.86A253.81,253.81,0,0,0,1838.14,303.34Z"/><path fill="#0fb9d3" d="M1945.29,266l-11.66-106.2a365.72,365.72,0,0,1,39.78-2.17V264.46A257.55,257.55,0,0,0,1945.29,266Z"/><path fill="none" stroke="#0fb9d3" stroke-miterlimit="10" stroke-width="34.31" d="M2070.6,547.7a96.09,96.09,0,0,1-192.17,0c0-53.07,96.08-169,96.08-169S2070.6,494.63,2070.6,547.7Z"/><path fill="none" stroke="#ea5a3d" stroke-linecap="round" stroke-linejoin="round" stroke-width="3.43" d="M784.1,750.25a94.08,94.08,0,0,0,39.33,5.42"/><path fill="#f09060" d="M521.3,589.34c28.69-19,64.83,5.21,64,41.55-1.11,49.27-51.82,234.88-51.82,234.88L431.91,845.59S465.05,626.66,521.3,589.34Z"/><path fill="#f09060" d="M737.63,611c-21.38,30.61-15.75,65.44-1.82,91.28s28.54,39.58,48.29,48c0,0-17.06,16-24.76,38.26s-21.66,84.52-22.59,116,81.22,125,81.22,125,81.78-60.16,85.33-182.88-55.21-200.38-76-220.12S760.47,578.32,737.63,611Z"/><path fill="#0fb9d3" d="M746.64,507.26a79.07,79.07,0,0,0-42.56-73.4,23.54,23.54,0,0,1-13-22.08L692.79,382a3.34,3.34,0,0,1,3.52-3.15h0a8.77,8.77,0,0,0,9.24-8.27l.52-9.37a8.78,8.78,0,0,0-8.27-9.24l-73.33-4.05a8.77,8.77,0,0,0-9.24,8.26l-.51,9.37a8.76,8.76,0,0,0,8.26,9.24h0a3.34,3.34,0,0,1,3.16,3.52l-1.57,28.3a22.92,22.92,0,0,1-15.76,20.67,79.08,79.08,0,0,0-55.12,72.14l-12.1,308.24A27.48,27.48,0,0,0,558,833.75c52.12,23.36,104.86,25.74,158.23,6.55a27.49,27.49,0,0,0,18.33-24.66Z" opacity=".9"/><path fill="#f09060" d="M425.1,632.53c15.7-31.34,57.9-38,70.14-10.67s3.91,90,3.91,90,40.53-30.91,68.7-28.55,55.5,20.06,32.93,62.48S528.11,817,528.11,817s53.79-7.53,128.58-.16,142.48,26.49,168,61.87,34.19,98.12,4.11,174.09S782,1153.4,782,1153.4,802.56,1230,816,1358s19,241.5,19,241.5-156.09,53.89-256.17,69.92-222-20.92-270.19-105.53-4.94-241.8,38.63-327.8,145.07-224.86,159.7-255.32c0,0-78.59-2.2-105.35-44.65s-24.27-87.6-12-113.88c0,0-2-36.5,6.52-88.59S413.28,656.14,425.1,632.53Z"/><path fill="none" stroke="#fff" stroke-linecap="round" stroke-linejoin="round" stroke-width="3.43" d="M727.78,612.09c-2.37,42.74-38.2,75.52-80,73.2s-73.83-38.84-71.46-81.59,38.19-75.52,80-73.2S730.14,569.34,727.78,612.09Z"/><path fill="none" stroke="#fff" stroke-linecap="round" stroke-linejoin="round" stroke-width="3.43" d="M641.1,586.87a9.08,9.08,0,1,1-8.56-9.57A9.08,9.08,0,0,1,641.1,586.87Z"/><path fill="none" stroke="#fff" stroke-linecap="round" stroke-linejoin="round" stroke-width="3.43" d="M627.27,632.2a10.3,10.3,0,1,1-9.71-10.85A10.29,10.29,0,0,1,627.27,632.2Z"/><path fill="none" stroke="#fff" stroke-linecap="round" stroke-linejoin="round" stroke-width="3.43" d="M659.52,612.15a5.45,5.45,0,1,1-5.14-5.74A5.45,5.45,0,0,1,659.52,612.15Z"/><path fill="none" stroke="#fff" stroke-linecap="round" stroke-linejoin="round" stroke-width="3.43" d="M671.9,571a7.27,7.27,0,1,1-6.85-7.66A7.26,7.26,0,0,1,671.9,571Z"/><path fill="none" stroke="#fff" stroke-linecap="round" stroke-linejoin="round" stroke-width="3.43" d="M705.66,604a10.1,10.1,0,1,1-9.52-10.63A10.09,10.09,0,0,1,705.66,604Z"/><path fill="none" stroke="#fff" stroke-linecap="round" stroke-linejoin="round" stroke-width="3.43" d="M694.86,645.65a8.28,8.28,0,1,1-7.81-8.72A8.28,8.28,0,0,1,694.86,645.65Z"/><path fill="none" stroke="#fff" stroke-linecap="round" stroke-linejoin="round" stroke-width="3.43" d="M657.12,655.48a6.06,6.06,0,1,1-5.71-6.38A6.07,6.07,0,0,1,657.12,655.48Z"/><path fill="none" stroke="#fff" stroke-linecap="round" stroke-linejoin="round" stroke-width="3.43" d="M608.49,599a5.65,5.65,0,1,1-5.33-6A5.66,5.66,0,0,1,608.49,599Z"/><path fill="none" stroke="#fff" stroke-linecap="round" stroke-linejoin="round" stroke-width="3.43" d="M646.5,555a5.65,5.65,0,1,1-5.33-6A5.65,5.65,0,0,1,646.5,555Z"/><path fill="none" stroke="#fff" stroke-linecap="round" stroke-linejoin="round" stroke-width="3.43" d="M700.93,572.6a6.06,6.06,0,1,1-5.72-6.39A6.07,6.07,0,0,1,700.93,572.6Z"/><path fill="none" stroke="#ea5a3d" stroke-linecap="round" stroke-linejoin="round" stroke-width="3.43" d="M543.07,687.85c-21.44,7.44-128.83,67.81-153.54,134.37"/><path fill="none" stroke="#ea5a3d" stroke-linecap="round" stroke-linejoin="round" stroke-width="3.43" d="M495.24,621.86c6.62,21.66,7.22,69.14,3.91,90"/><path fill="none" stroke="#ea5a3d" stroke-linecap="round" stroke-linejoin="round" stroke-width="3.43" d="M474.77,607c-8.92,44.25-30.08,95.37-70.51,105"/><path fill="none" stroke="#ea5a3d" stroke-linecap="round" stroke-linejoin="round" stroke-width="3.43" d="M481.87,722.2c33.32,31,101.31,10.46,125.61-9.76"/><path fill="none" stroke="#ea5a3d" stroke-linecap="round" stroke-linejoin="round" stroke-width="3.43" d="M541.59,807.61C517.48,828.76,472,862.36,472,862.36"/><path fill="none" stroke="#ea5a3d" stroke-linecap="round" stroke-linejoin="round" stroke-width="3.43" d="M753.35,599.76c-2,36.54,18.4,66.79,47.67,83.5s62.58-.85,62.58-.85"/><path fill="none" stroke="#ea5a3d" stroke-linecap="round" stroke-linejoin="round" stroke-width="3.43" d="M747.33,835c56.14,18.2,113.84,66.68,96.36,168.14"/><path fill="none" stroke="#ea5a3d" stroke-linecap="round" stroke-linejoin="round" stroke-width="3.43" d="M506.91,980.75c44.1,1.9,104,.9,131,.78"/><path fill="none" stroke="#ea5a3d" stroke-linecap="round" stroke-linejoin="round" stroke-width="3.43" d="M782,1153.4c-49.39,103.47-128.73,251.1-155.68,299.75"/><path fill="#f44c44" d="M548.53,1672.58c.37-37.82-25.91-74.14-78.66-108.35-70.63-45.81-125.37-46.76-162.67-3,.47.87.89,1.79,1.38,2.65C352,1640.12,455.29,1677.63,548.53,1672.58Z" opacity=".4"/><path fill="#f09060" d="M1230.05,461.18c-26.87,17.92-45.85,49.21-51.28,88.81s-3.86,53.87,5,85.45c12.94,46.27,51.67,60,51.67,60s21.88,111.19,28.88,160.1,16.14,117.34,16.14,117.34,35,89.27,152.42,71,156.32-97,156.32-97-23.59-21.79-38.83-58.22-72.23-156-92.54-198.12-39.49-85.21-39.49-85.21,31.7-27.36,37.1-56.71-4.76-69.81-37.58-80.79S1230.05,461.18,1230.05,461.18Z"/><path fill="#f09060" d="M1185.07,543.33c-14.72,3-37.21.09-39.56,13.44s34.31,22.93,34.31,22.93Z"/><path fill="#fff" d="M1204.73,594.82a90.46,90.46,0,0,1-29.59,3.21,115.73,115.73,0,0,0,6,29.71c7.64-2,21.74-5.57,31-11.89,12.82-8.79,16.57-18.15,13.56-22.09S1214.37,592.32,1204.73,594.82Z"/><path fill="#f44c44" d="M1285.53,577.66c2.29,20.92-4.44,32.43-19.94,34.12s-24.56-8.09-26.84-29,4.44-32.44,19.94-34.13S1283.25,556.73,1285.53,577.66Z" opacity=".25"/><path d="M1221.11,545.59c-.35,6.41-2.95,9.54-7.7,9.28s-7-3.66-6.64-10.07,3-9.54,7.71-9.28S1221.47,539.18,1221.11,545.59Z"/><path fill="none" stroke="#000" stroke-linecap="round" stroke-linejoin="round" stroke-width="6.86" d="M1206.12,503.92c15.14-3.2,29.89.45,38.41,7.39"/><path fill="none" stroke="#ea5a3d" stroke-linecap="round" stroke-linejoin="round" stroke-width="3.43" d="M1235.41,695.45c15.09,7.44,57.41,2.5,69.53-4.51"/><path fill="none" stroke="#ea5a3d" stroke-linecap="round" stroke-linejoin="round" stroke-width="3.43" d="M1418.31,605.3c-17,10.11-36.76,9-48.07,1.52"/><path fill="none" stroke="#ea5a3d" stroke-linecap="round" stroke-linejoin="round" stroke-width="3.43" d="M1414.32,519.09c-10.84,13.15-30.89,54.09-30.89,54.09"/><path fill="none" stroke="#ea5a3d" stroke-linecap="round" stroke-linejoin="round" stroke-width="3.43" d="M1234.59,552c-4.37,13.3-11.2,48.91,16.12,77.72"/><path fill="#1d1d1b" d="M1117.86,389.06c34.37,48.67,69.21,69.47,88.68,78.09s84.85,1.06,84.85,1.06-10.2,45.53,15.37,65.55c18.31,14.32,20.68,37.94,23.13,42.38s16.12-8.81,22-26.81,9.4-43.15,22.26-61.31,43.71-20.22,43.71-20.22-.66-17.08-15.35-34.28c-16-18.67-36.68-23.75-75.3-27.62a544.11,544.11,0,0,0-64.13-2.74s-17.48-44.63-48.93-80.34-66.4-49.5-95.81-34.41S1096.87,359.32,1117.86,389.06Z"/><path fill="#f09060" d="M1774.7,1510.25s94.88-58.36,173.76-100.36,168-73.72,168-73.72,77.85,190.84-15.82,363.56-347.69,204-448,204.86-249.74,12.06-421.46-12S972.07,1839.43,918.32,1817s-89.23-53.46-102.85-84.94,17-58.9,44.42-57.38c0,0-38.3-38.51-66-78.06s-18.48-90,10.46-101.31,77.75,12.39,77.75,12.39-32.08-63.23-31.78-112.55,49.08-68.44,80.43-50.53,41.76,49.21,52.73,70,27.16,50,27.16,50-17.18-84.24-8.14-145.2,53.78-80.32,86.79-63.13,35.65,74,35.71,99.83c.2,84.11,69.71,99.28,112.13,107.29,0,0-9.86-55.54,10.14-124.78s70.9-101.22,119.21-79.12c40.23,18.4,1.37,106.82,3.93,148.2s50.09,73.94,70.74,95.3,85.24,23.32,146.73,22.68S1774.7,1510.25,1774.7,1510.25Z"/><path fill="none" stroke="#ea5a3d" stroke-linecap="round" stroke-linejoin="round" stroke-width="3.43" d="M859.89,1674.72c30.64,30.81,118.71,90.67,150,110.19"/><path fill="none" stroke="#ea5a3d" stroke-linecap="round" stroke-linejoin="round" stroke-width="3.43" d="M882.07,1507.74c24.47,54.73,74.64,127,144.61,177.83"/><path fill="none" stroke="#ea5a3d" stroke-linecap="round" stroke-linejoin="round" stroke-width="3.43" d="M1010.61,1464.72c11.38,42.68,40.5,100.9,77.64,131.26"/><path fill="none" stroke="#ea5a3d" stroke-linecap="round" stroke-linejoin="round" stroke-width="3.43" d="M817.93,1497.72c22.4,19,58.87,90.6,19.42,145.83"/><path fill="none" stroke="#ea5a3d" stroke-linecap="round" stroke-linejoin="round" stroke-width="3.43" d="M821.29,1700.08c36.37,15,86.54,58.16,70.42,100.93"/><path fill="none" stroke="#ea5a3d" stroke-linecap="round" stroke-linejoin="round" stroke-width="3.43" d="M907.57,1339.33c14.92,37.22,15.83,123-34.46,140.42"/><path fill="none" stroke="#ea5a3d" stroke-linecap="round" stroke-linejoin="round" stroke-width="3.43" d="M1071.57,1254.61c.18,40.44-.7,114.79-69.72,119.86"/><path fill="none" stroke="#ea5a3d" stroke-linecap="round" stroke-linejoin="round" stroke-width="3.43" d="M1331.92,1255.27c-19.43,44.21-34.19,121,35.32,136.19"/><path fill="none" stroke="#ea5a3d" stroke-linecap="round" stroke-linejoin="round" stroke-width="3.43" d="M1237.1,1463.51c14.33,4,47.61,16.38,47.61,16.38"/><path fill="none" stroke="#ea5a3d" stroke-linecap="round" stroke-linejoin="round" stroke-width="3.43" d="M1774.7,1510.25c61-5.52,112.69-5.08,139,1.23"/><path fill="#0fb9d3" d="M1572.55,1602.2c14-45.86,26.68-77.4,26.68-77.4s-16.44-9.81-61.59-12.31-61,6.33-61,6.33c-7.48,11.47-15.82,34-24.33,62.16-4.52,15-15.58,27.58-30.49,32.38a58.36,58.36,0,0,0-40,47.87l-11.55,88.6a58.17,58.17,0,0,0,17.75,49.72c10.34,9.84,16.36,23.38,15.39,37.61-2.69,39.18-3.13,68-3.13,68s17.63,17.93,60.43,18.71c43.62.8,60.77-16.85,60.77-16.85s1.21-18.94,4.09-48.54a48.26,48.26,0,0,1,24.54-37.8,58.18,58.18,0,0,0,29.94-43.53l11.54-88.6a57.94,57.94,0,0,0-11.67-43C1570.46,1633.32,1568,1617,1572.55,1602.2Z"/><path fill="#372e3e" d="M1509.89,1812l-80.78-10.52a50.13,50.13,0,0,1-43.09-56l9.9-76a50.13,50.13,0,0,1,56-43.1l80.78,10.53a50.12,50.12,0,0,1,43.09,56l-9.9,76A50.12,50.12,0,0,1,1509.89,1812Z"/><path fill="#f44c44" d="M2100.62,1699.73c30.53-56.29,42.77-114.47,45.49-167.38-45.14,2.77-84.31,38-116.76,105.4-32.24,67-35.52,119.31-10.07,156.29C2051.89,1768.61,2080.1,1737.57,2100.62,1699.73Z" opacity=".4"/><path fill="none" stroke="#0fb9d3" stroke-miterlimit="10" stroke-width="10.29" d="M828.81,115.77C808.74,161,758,182.34,758,182.34s-18.22-52,1.84-97.18,70.83-66.58,70.83-66.58S848.87,70.55,828.81,115.77Z"/><path fill="none" stroke="#0fb9d3" stroke-miterlimit="10" stroke-width="10.29" d="M438.18,139.28c35.87,34.07,39,89.05,39,89.05s-55.06-.25-90.94-34.32-39-89-39-89S402.3,105.22,438.18,139.28Z"/><path fill="none" stroke="#0fb9d3" stroke-miterlimit="10" stroke-width="10.29" d="M327.08,476.42c46.63-16.55,97.05,5.6,97.05,5.6s-25.18,49-71.8,65.52-97-5.6-97-5.6S280.46,493,327.08,476.42Z"/><line x1="393.74" x2="487.71" y1="337.25" y2="363.48" fill="none" stroke="#eddc00" stroke-miterlimit="10" stroke-width="10.29"/><line x1="605.1" x2="620.53" y1="171.04" y2="243.06" fill="none" stroke="#0fb9d3" stroke-miterlimit="10" stroke-width="10.29"/><line x1="864.44" x2="808.47" y1="248.47" y2="295.51" fill="none" stroke="#eddc00" stroke-miterlimit="10" stroke-width="10.29"/><line x1="858.57" x2="931.13" y1="442.23" y2="446.25" fill="none" stroke="#0fb9d3" stroke-miterlimit="10" stroke-width="10.29"/></svg>